<?xml version="1.0" encoding="utf-8"?>
<!-- Generator: Adobe Illustrator 19.2.1, SVG Export Plug-In . SVG Version: 6.00 Build 0)  -->
<svg version="1.1" xmlns="http://www.w3.org/2000/svg" xmlns:xlink="http://www.w3.org/1999/xlink" x="0px" y="0px"
	 viewBox="0 0 1335 1295" style="enable-background:new 0 0 1335 1295;" xml:space="preserve">
<style type="text/css">
	.st0{fill:#F37061;}
</style>
<g id="Layer_2_xA0_Image_1_">
</g>
<g id="Layer_1_xA0_Image_1_">
	<path class="st0" d="M1335,699c0-1.3,0-2.7,0-4c-1.8-6.6-3.3-13.3-5.6-19.8c-0.8-2.4-3.2-4.3-4.9-6.4c-1.9-2.3-18.3-15.7-25.3-20
		c-1.9-1.2-4-3.7-4.2-5.7c-0.7-9.7-1.9-19.6-0.8-29.1c1.5-12,0.9-23.8-0.7-35.6c-1.1-8.1-3.7-15.9-5.8-23.8
		c-3.2-12.5-7.4-24.9-6.3-37.8c0.6-6.3,4.1-12.7,7.7-18.3c7.8-12.1,11.2-25,9.4-39.1c-1.6-11.9-3.8-23.8-6.4-35.5
		c-2.9-13.2-9.8-25-15.3-37.2c-4-8.8-9.3-16.6-15.5-23.8c-6-7-11.8-14-17.8-21c-5.7-6.7-11-13.8-17.2-20
		c-8.8-8.7-17.9-17.3-27.7-24.9c-7.5-5.8-16.9-9.2-26.4-8.2c-9.1,1-12.4-4.7-16.3-10.5c-0.8-1.1-1-2.5-1.9-3.6
		c-5.1-6.6-10.3-13.1-15.6-19.6c-5.6-6.8-11-13.8-17-20.3c-2.5-2.7-6.1-4.2-9.2-6.4c-1.4-1-2.6-2.5-4-3.6c-5.4-4.2-11-8.1-16.2-12.6
		c-2.2-1.9-3.2-5.1-5.2-7.3c-7.4-8.1-14.6-16.5-22.7-23.8c-6.5-5.9-14.4-10.4-21.4-15.8c-1.6-1.2-3-3.9-2.9-5.8
		c0.2-5.7,1.8-11.3,1.8-16.9c0.1-14.4-3.1-27.7-15.3-37c-11.1-8.5-22.4-16.8-33.6-25.2c-7.9-5.9-15.6-12.1-23.6-17.9
		c-3.5-2.5-7.4-4.3-11.2-6.4c-8.1-4.3-20.7-10.4-25.1-11.6c-4.4-1.3-5.1-3.1-7.9-4.1c-10.4-3.7-20.7-7.8-31.3-10.4
		c-7.2-1.8-12.7,3.8-18.5,7.4c-7.8,4.8-15.6,10.2-24.1,13.1c-5.7,1.9-12.8,0.6-19.1-0.3c-7.3-1-14.5-3.1-21.8-4.8
		c-1.6-0.4-3.6-0.2-4.9-1.1c-8.2-5.7-17.8-5.1-27-6.7c-9.3-1.6-19-2.5-27.8-5.6c-4.7-1.7-8.7-7.1-11.5-11.8c-3-5-10.8-11-16.6-11.5
		c-3.6-0.3-7.1-2.2-10.7-3c-4.4-1-8.8-1.8-13.2-2.2c-10.3-1-20.6-1.7-30.9-2.6c-16-1.5-32-0.6-47.9,0.6c-2.7,0.2-5.4,1.7-8.1,2.7
		c-9.9,3.7-20.4,6.2-29.5,11.4c-7.1,4-12.2,11.6-18.7,16.8c-3.3,2.6-7.7,4.3-11.9,5.1c-11.6,2.4-23.5,3.5-35,6.4
		c-12.6,3.2-24.9,7.7-37.2,11.7c-13.7,4.5-27.3,9-40.9,13.7c-8.2,2.8-16.2,7.1-24.6,8.4c-9.5,1.5-19.4,1.2-29,0.1
		c-11.5-1.3-22.8-4.5-34.2-6.5c-15.1-2.7-30.3-3.5-44.7,3.1c-3.7,1.7-7.1,4.3-10.5,6.7c-4.4,3.1-8.8,6.2-12.8,9.7
		c-5.9,5.3-11.2,11.1-17,16.5c-5.8,5.4-12.1,10.3-17.9,15.7c-2.3,2.2-6.3,6.4-9.9,9.4c-3.6,3-19.1,17.2-19.9,18.1
		c-6.1,5-11.9,10.3-18,15.3c-4.3,3.5-9.2,6.3-13.1,10c-4.2,4-7.7,8.7-11.2,13.3c-4.2,5.5-7.4,12.1-12.4,16.7
		c-4.7,4.4-8.1,12-8.1,18.7c-0.1,6.7,3.7,18.1,4.2,27.2c0.5,7.5-0.8,15.1-1.7,22.6c-1.5,12.6-11.2,20.7-17.5,30.6
		c-2.2,3.4-4.7,6.7-7,10.1c-6.3,9.4-12.8,18.7-18.8,28.3c-7.7,12.1-15.7,24-22.1,36.7c-3.3,6.4-7.7,7.3-13.2,7
		c-8.5-0.4-14.1,3.3-19.9,9.4c-6.3,6.7-9.7,14.3-13,22.4c-2.5,6.3-6.7,12-9.2,18.4c-3.5,9-5.4,18.6-9.4,27.4
		c-3,6.8-5.1,13.5-5.3,20.7c-0.2,6.8-0.7,13.8,0.3,20.5c0.7,4.4,2.8,9.3,5.9,12.3c4.7,4.4,4.4,9.7,4.4,14.8
		c0.1,6.2-1.3,12.5-1.6,18.8c-0.5,11.3-0.8,22.6-0.7,33.9c0,7.8,0.7,15.6,1.2,23.4c0.1,2.2,1.3,4.3,1.1,6.4
		c-0.7,7.1-2.4,14.2-2.5,21.3c-0.2,8.3,0.9,16.6,1.5,24.9c0.1,2,0.2,4,0.1,6c-0.4,9.2-0.8,18.4-1.4,27.6c-0.5,7-0.3,13.7-6.3,19.6
		c-7.5,7.3-13.5,16.1-20,24.4c-1.7,2.2-3,2.5-4.3,7.2c-1.3,4.7,4.3,27.3,6.6,34.9c1.4,4.9,3,9.7,4.5,14.5c3.1,9.3,5.9,18.7,9.4,27.9
		c1.6,4.2,4.6,7.9,6.4,12c1.9,4.3,2.9,8.9,4.5,13.3c0.9,2.4,1.9,5.3,3.8,6.6c7,5,11.2,12.1,15.1,19.3c4.3,8,8.2,16.2,11.4,24.7
		c2.3,6.1,7.7,4.1,10.5,3.6c7.4-1.3,10.1,3.1,13,7.8c4.3,6.9,8.3,14.1,12.7,21c6.5,10.3,15,19.4,18.6,31.5c0.5,1.7,1.7,3.3,2.8,4.8
		c10.8,14.4,22.8,28,32.1,43.3c7.3,12,16.7,22.1,25,33.2c4.8,6.5,11.4,11.8,16.7,18.1c7.9,9.3,16.3,18.4,22.7,28.7
		c7.2,11.7,16.7,21.2,26.4,30.3c3.9,3.7,7,8.5,11.5,11.7c1.2,0.8,2.3,2.5,2.4,3.9c0.7,6.7,1.2,13.3,1.4,20
		c0.2,9.6,5.1,17.4,9.9,24.8c4.8,7.4,11.6,13.5,17,20.6c5.8,7.7,14.4,11.4,22,16.4c9.1,6,18.7,11.1,28.4,16.2
		c3.1,1.7,6.9,2.1,10.4,3.1c0.5,0.1,13,3.3,17.9,6.1c7.6,4.4,15.9,5.2,23.9,7.2c6.5,1.6,13.5,1.5,20,2.9c3.9,0.9,6.6-0.7,9.2-2.4
		c4-2.6,7.6-5.9,11.6-8.6c0.9-0.6,2.5-0.7,3.6-0.3c4.4,1.7,8.5,4,12.9,5.4c10.6,3.4,21.3,6.5,31.9,9.7c3.5,1.1,6.8,2.6,10.3,3.6
		c6.9,1.8,13.9,3.1,20.8,5.2c5.3,1.6,10.3,4.2,15.6,6.1c3.3,1.2,6.7,1.8,10.1,2.6c0.6,0.1,1.4-0.2,2,0c8.2,2.5,16.4,5.2,24.7,7.5
		c4.4,1.3,9,2.3,13.5,3c4.2,0.6,8.6,0.3,12.9,1c3.3,0.5,6.3,2.1,9.6,2.8c3.5,0.8,10.2,2.2,21,1.7c10.8-0.5,10.5,0.8,15.2,2
		c2.4,0.6,23.5,1.7,28.5,0.5c5.1-1.2,12.1,0.3,18.4-0.7c11.2-1.8,22.6-2,33.9-3c12.4-1.1,24.8-2.6,37.3-3.7
		c14.3-1.3,27-7.9,40.5-11.7c4.3-1.2,8.8-3.2,12.9-2.6c3.9,0.6,7.8,3.5,11.1,6.2c6.4,5.1,13.6,7,21.5,6.5c3.1-0.2,6.2-1.3,9.3-1.9
		c7.2-1.6,14.3-3.1,21.5-4.8c2.7-0.6,5.4-1.7,8.1-2.3c4.5-1,9.3-1.2,13.4-2.9c8.3-3.4,16-8.1,24.2-11.6c14.4-6,28.7-12,41.6-21.1
		c3-2.1,6.3-3.8,9.5-5.5c3.2-1.7,6.7-2.8,9.9-4.6c4.1-2.4,8.1-5,12-7.8c11.9-8.7,23.7-17.4,27.8-32.7c0.7-2.6,1-5.3,2.2-7.7
		c1.4-2.8,3.1-5.6,5.3-7.7c4.5-4.2,9.5-7.8,14.3-11.7c5.7-4.8,11.2-9.9,17.1-14.3c5.6-4.2,11.8-7.5,17.4-11.7
		c3.3-2.4,5.5-6.2,8.7-8.7c6.2-5,12.9-9.4,19.2-14.3c5.4-4.1,10.1-9.7,16-12.6c11.8-5.7,24.7-8.3,38-8.1c3.8,0.1,8,0.5,11.2-0.9
		c9.5-4.1,17-11.2,23.8-18.8c6-6.7,11.2-14.2,17.1-21.1c10.8-12.4,21.3-24.9,29.9-39.1c8.5-14.2,18-27.8,26.3-42.1
		c3.3-5.7,7.1-12,5.2-19.4c-2.5-9.9-5.2-19.7-7.8-29.6c-1.6-6-3.3-11.9-4.6-18c-0.6-3-1.6-6.9-0.4-9.3c4.8-9.4,4-20.8,10.6-29.6
		c0.7-0.9,0.2-2.6,0.3-3.9c0.1-1.1,0.1-2.3,0.5-3.4c2.7-7,6.1-13.7,8-20.9c1.4-5.5,4.4-6.7,9.1-5.9c4.8,0.8,8.8-0.7,12-4
		c3.7-3.8,7.4-7.9,10.2-12.4c3.6-6,6.5-12.4,9.3-18.8c3.2-7.1,6.3-14.3,8.7-21.7c2.3-6.8,3.1-14,5.6-20.7
		c3.9-10.6,5.2-21.7,6.7-32.8C1334.1,713.9,1334.4,706.4,1335,699z M1207.1,1002.5c-1.3-0.7-2.9-0.7-5.8-1.4
		c2.8-5.2,4.5-10.4,7.8-14.1c6.5-7.2,5.7-18.8,14.8-24.2c0.3-0.2,0.1-0.9,0.3-1.4c4.1-10,8.1-20,12.4-29.9c1-2.2,3-4,4.7-6.3
		c2.2,4.4,3.1,8.7,5.7,11c3.4,2.9,3.7,6.8,5.4,10.1c2.6,4.9,2.2,9.7-0.6,13.9c-2.8,4.2-6.6,7.7-10.6,12.3c-1.9-3.2-3.1-6.4-5.3-8.6
		c-1.7-1.8-4.6-2.9-7.1-3.3c-0.6-0.1-3.1,3.9-2.6,5.3c1.4,4.7,3.8,9.1,5.7,13.6c1,2.3,2.6,4.8,2.4,7.1c-0.3,2.5-1.9,5.3-3.8,7.1
		c-3.2,3.3-7.1,5.8-10.6,8.9C1215.5,1006.8,1211.4,1004.7,1207.1,1002.5z M1137.9,1075.4c1-1.1,1.8-2,2.7-3
		c5.9-6.8,12.1-13.4,17.8-20.4c5.3-6.5,9.8-13.7,15.2-20.1c5.8-6.8,12.3-13.1,18.6-19.4c0.8-0.8,2.4-1.7,3.4-1.5
		c3.4,0.7,6.9,1.6,10.1,3c1.3,0.5,2.9,2.6,2.7,3.7c-1.1,5.6-1.9,11.6-4.5,16.5c-4.5,8.5-11.3,15.3-20.7,18.5c-3,1-6.3,1.2-9.5,1.3
		c-2.6,0-5.3-1.1-8-0.9c-1.7,0.1-3.9,1.5-4.7,2.9c-0.5,0.9,1,3.5,2.3,4.4c2.1,1.5,5,1.9,7.2,3.2c1.9,1.1,4.3,2.8,4.7,4.6
		c0.4,2.1-0.6,5.9-2,6.6c-3.9,1.7-8.3,2.8-12.5,2.7C1153.3,1077.3,1145.9,1076.2,1137.9,1075.4z M830.6,1266.6
		c0.1-2.7,2.2-5.8,4.3-7.8c4.8-4.8,10.1-9.1,15.3-13.5c1.3-1.1,2.6-2.1,4-3c5-3.2,10.3-6.1,15.1-9.6c3.5-2.5,6.3-6.2,10-8.4
		c12.4-7.1,25-13.9,37.7-20.5c14-7.2,28.6-12.5,44.4-14.6c10.9-1.4,21.5-4.6,32.2-6.9c4.9-1,10.7,2,11.9,6c1.4,4.4-1,8.5-6.4,11.1
		c-1.9,0.9-3.8,2.2-5.6,3.3c-14.6,8.5-29.3,16.9-43.9,25.5c-10.3,6-20.5,12.1-30.6,18.2c-2.2,1.4-3.9,3.9-6.3,4.8
		c-14.7,5.2-28.3,13.1-43.9,16c-9.6,1.8-19.1,4.2-28.7,6.4C832.7,1273,830.4,1271.9,830.6,1266.6z M271.6,1170.1
		c0.6-1.6,5.7-2,8.6-2.9c0.5-0.1,19,3.1,27,6.4c12.6,5.2,24.7,11.7,37.2,17.3c3.9,1.7,8,2.7,10.6,6.7c0.7,1.1,2.6,1.3,4,1.9
		c1.5,0.6,3.1,1,4.4,1.9c7,4.4,14,9,20.9,13.5c7.5,4.9,15.1,9.7,22.5,14.8c4.3,3,5,9.4,1.4,12.3c-6.1,5-13,7.5-21,4.5
		c-6.1-2.3-12.2-4.4-18.4-6.4c-6.1-2-12.7-3-18.3-5.9c-14.1-7.3-27.9-15.2-41.6-23.2c-5.5-3.2-11-6.6-15.5-11
		c-6.6-6.4-12.4-13.6-18.1-20.8C273.4,1176.7,271,1171.7,271.6,1170.1z M20.5,767.4c-2.6,0.4-5.2,0.1-8.6,0.1
		c1-4.7,1.4-8.2,2.6-11.5c2.1-5.7-2.9-11.2,0.2-17.2c2.1-4.2,5.8-8.7,9.8-8c3.4,0.5,6.4,5.5,6.1,9.9c-0.1,2,0.1,4,0.2,6
		C31.1,754.4,29.3,766.1,20.5,767.4z M34.2,486.6c0.7-0.6,2.3-0.6,3.2-0.2c6.5,2.9,9.1,10.2,5.8,16.6c-0.8,1.5-2.7,2.4-3.1,2.9
		c-6.2-0.3-12.8-3.9-12.7-6.3C27.6,494.3,30.4,490.1,34.2,486.6z M43.7,459.1c4.7,0,9.4,3.5,8.9,6.1c-1,5.5-2.1,11-3.3,16.5
		c-0.1,0.7-1,1.4-1.7,1.7c-4,1.6-13-0.9-14.9-4.7c-0.9-1.8-0.4-4.6,0.1-6.7c0.5-2,2.5-3.8,2.8-5.8C36.2,460.5,41.6,461.5,43.7,459.1
		z M49.6,431.6c5.9-5.5,11.5-6.8,18-1c-1.4,4.6-3,9.8-4.6,14.9c-0.4,1.1-0.7,2.3-1.3,3.2c-1.6,2.6-3.2,5-7.1,3.6
		c-4.9-1.7-10-2.8-14.6-4C38.8,439.8,44.6,436.2,49.6,431.6z M83.9,395.5c-2.6,5.9-4.8,11.4-7.4,16.7c-2.7,5.7-5.5,7-11.5,5.6
		c-2.5-0.6-4.9-1.8-7.4-2.7C61.1,401.5,69,395.4,83.9,395.5z M321.8,97.8c-7.4,12.7-17.7,23-27.3,34.1
		c-10.2,11.7-21.6,21.9-33.6,31.6c-7.1,5.7-14.7,10.9-22,16.4c-5.3,4-10.2,8.6-15.6,12.4c-5,3.4-10.6,6-15.9,9.1
		c-7.6,4.5-15.1,9.1-22.6,13.7c-5.4,3.3-10.7,1.4-16.3,0.3c2.2-9.3,6.2-17,12.3-23.4c5.5-5.8,12-10.6,18-15.9
		c0.9-0.8,1.9-1.5,2.4-2.5c3.5-6.4,9.6-10.1,14.6-14.9c2.8-2.8,13.9-8.9,16.7-12.4c2.8-3.5,15.5-15.4,18.5-17.7
		c6.7-5.2,13.3-10.4,19.7-15.9c4.7-4.1,8.8-9,13.6-12.9c4.3-3.4,9.3-5.9,14-8.7c3.3-1.9,6.6-4,10.1-5.4c4.1-1.6,8.5-2.5,12.2,1.2
		C324.6,90.5,324.6,93.1,321.8,97.8z M726.2,33.1c-7.3,1.6-15.1,2.2-22.6,1.9c-7.4-0.3-14.7-3-22.1-3.1c-11.3-0.1-22.6,1.4-34,1.9
		c-12.3,0.5-24.7,0.3-37,0.8c-7.5,0.3-15,1.9-22.4,1.9c-2.9,0-6.5-2.5-8.3-5c-1-1.4,0.4-5.4,1.8-7.4c1.5-2,4.2-3.5,6.7-4.2
		c12.9-3.3,25.8-6.5,38.8-9.3c4.3-0.9,9-0.4,13.4-0.4c4.5,0.1,8.9,0.4,13.4,0.7c12.6,0.7,25.2,1.4,37.9,2.1c1.3,0.1,2.6,0.3,3.9,0.4
		c0-0.1,0-0.2,0-0.3c4.9,0.2,9.9-0.3,14.5,0.9c5.4,1.4,10.9,3.5,15.6,6.5C731.2,23.7,731.2,32,726.2,33.1z M1029.2,124.7
		c-2.5,5.4-7.8,8.2-12.8,6.6c-6.4-2-12.8-4.3-18.9-7.2c-10.6-5.1-21.1-10.5-31.4-16.2c-4.8-2.6-8.9-6.5-13.6-9.3
		c-11.2-6.8-22.4-13.2-31.6-22.9c-7-7.4-14.6-14.1-21.5-21.6c-2.5-2.7-3.4-6.7-5.1-10.1c-0.4-5.4,3.2-6.5,6.6-6.1
		c2.5,0.3,4.6,2.7,7.1,3.8c14.1,6.6,28.5,12.6,42.1,20c10.4,5.6,19.9,12.9,29.7,19.4c5.9,3.9,11.8,7.7,17.5,11.6
		c9.6,6.6,19.3,13.2,28.7,20.2C1029.8,115.7,1031.3,120.2,1029.2,124.7z M1262.1,494.6c-6.2-4.9-12.5-10.1-17.7-16.1
		c-8.9-10.5-17.1-21.6-25.3-32.6c-7.6-10.4-14.5-21.4-22.4-31.5c-7.4-9.5-11.4-20.4-15.4-31.4c-2.9-8-5.1-16.3-7.2-24.6
		c-2.5-9.7-5.7-29.4-5.2-29.5c-0.4-4.2-1-8.3-1.2-12.5c-0.3-6.5,2.7-11.2,9.2-11.6c5-0.3,10.7,1.1,15.2,3.3
		c11.2,5.5,19,15.3,27.1,24.5c6.9,7.9,13.5,16.3,21.5,23.1c6.9,5.8,11.8,12.8,16,20.3c4.7,8.3,8.5,17.1,12.6,25.7
		c7.4,15.2,11.4,31.4,13.3,48.1c0.5,4.3-1.7,9.1-0.6,13.1c2.1,7.5,1,14.6,0.2,21.9C1281.4,493.3,1268.5,499.7,1262.1,494.6z
		 M1293.6,667.4c-5.6,4.7-9.8,10.1-10.6,18c-0.3,3.2-3.4,7.5-6.3,8.7c-3.9,1.7-9,1.4-12.4-2.9c-1.1-1.4-2.6-3.1-4.2-3.4
		c-2.2-0.5-5.2-0.6-6.9,0.6c-1.3,0.9-2.1,4.5-1.3,6c2.1,4.1,5.1,7.7,7.8,11.5c1,1.3,2.7,2.3,3.3,3.7c3.7,9.7,4.2,20.2-0.3,29.1
		c-3.9,7.8-10.8,14.3-17,20.7c-2.8,2.9-7.6,3.8-10.7,6.4c-3.1,2.6-5.6,6.1-7.5,9.6c-0.7,1.3,0.6,5,2.1,5.8c1.6,1,4.6,0.6,6.7-0.1
		c4.2-1.5,8.1-4.2,12.4-5.4c1.9-0.5,5.4,0.7,6.4,2.2c2.3,3.7,4.1,8,5.1,12.3c1.5,6.3,2.3,12.9,2.8,19.4c0.1,1.6-1.3,4.4-2.7,5
		c-5.6,2.3-11.4,3.8-17.1,5.7c-3.3,1.1-5.2-0.2-5.9-3.5c-0.5-2.6-0.5-5.5-1.5-7.9c-0.7-1.7-2.9-4.1-4.2-4.1c-1.3,0-4.6,4.8-4.1,5.9
		c1.5,3.5,0.2,5.7-0.6,8.9c-2,8.2-2.9,16.6-6.7,24.5c-3,6.2-3.1,13.7-5.2,20.4c-2.2,7.2-5,14.2-7.6,21.3c-2,5.5-4.3,11-6.2,16.5
		c-1.4,4.1-1.5,9-3.8,12.3c-3.8,5.3-5.4,10.7-5.2,16.9c0,1.5,0.9,4.1,1.6,4.2c1.7,0.2,4.3-0.2,5.3-1.4c3.6-4.5,7.5-9.1,9.8-14.4
		c3.5-7.7,4.9-16.4,8.7-23.9c3.9-8,5.5-16.5,7.9-24.8c3.7-12.4,8.5-24,19.5-32c3.9-2.8,7.9-2.4,10.1,1.8c2.6,4.9,4.6,9.8,0.4,15
		c-0.9,1.1-0.9,2.8-1.4,4.3c-2.1,6-4.1,12-6.5,17.9c-2.8,6.9-6,13.5-8.9,20.3c-0.7,1.7-0.5,3.8-1.2,5.6c-2.2,5.8-4.3,11.6-6.9,17.1
		c-2.4,5.1-5.4,9.9-8.4,14.7c-3.5,5.6-7.4,11-11,16.7c-5.3,8.5-9.5,18-16,25.4c-7.8,8.7-15.3,17.7-21.9,27.3
		c-3.8,5.5-7.5,11.2-11.4,16.6c-7.5,10.3-15.1,20.4-22.7,30.6c-2.8,3.7-5.4,7.7-8.7,10.8c-7.2,6.6-14.9,12.4-22.2,18.9
		c-11.4,10.2-22.5,20.6-33.8,30.8c-5.7,5.1-11.5,10.2-17.7,14.8c-7.1,5.2-14.7,9.6-20,17.1c-1.6,2.2-4.5,3.5-7.1,4.8
		c-5,2.4-10.4-1-11.3-6.5c-1.3-7.5,1.9-13.9,5.2-20c2.5-4.6,5.7-9,9.4-12.6c3.1-3.1,7.7-4.6,11-7.5c4.9-4.2,9.7-8.6,13.7-13.6
		c3.3-4.2,2.4-8.2-1.4-11.1c-3.8-2.9-7.3-1-10.4,1.7c-7.5,6.7-14.7,13.6-22.3,20c-9.6,8.1-19.4,15.8-29.2,23.6
		c-3.9,3.1-4.4,8.8-0.5,11.6c2,1.4,4.6,2,7.6,3.3c0.4,4.9,1.1,10.7,1.1,16.4c0.1,4.3-0.5,8.7-1.2,13c-0.3,1.5-1.8,3.4-3.2,3.8
		c-11.8,3.9-24.1,5.6-36.5,5.9c-5.5,0.1-10.9-4.8-11.3-10.4c-0.3-4.7,1-9.6,1.3-14.4c0.1-2,0.3-5.3-0.7-5.8c-1.9-1-5.2-1.4-6.9-0.4
		c-2.5,1.5-5.3,4.2-6,7c-2,7.3-3,14.8-4.5,22.3c-0.3,1.3-1,2.8-2,3.7c-4.8,4.1-9.7,8.1-14.7,12c-4.1,3.3-11,2.5-14.5-1.1
		c-3.8-4-14.2-11.8-15.1-10.2s3.5,8.7,5.9,11.7c3.3,4.2,2.9,7.3-1.1,10.1c-9.8,6.8-19.7,13.5-29.8,20c-1.3,0.8-4,0.4-5.5-0.5
		c-5.9-3.4-11.6-7.1-17.4-10.8c-3.2-2.1-6.6-3.9-9.5-6.4c-2.4-2-4.6-3-7-1c-1.9,1.6-1.5,8.3,0.2,9.8c4.6,4.1,9.4,8.1,13.8,12.4
		c9,8.7,9,9.7-1.8,16.6c-1.9,1.2-5.5,0.5-8.1-0.2c-2.1-0.6-3.7-3.5-5.7-3.9c-2.8-0.4-7.9-0.5-8.7,1.1s1.4,4.9,2.5,7.2
		c0.5,1,2.2,1.4,3.3,2.1c3.6,2.2,4.2,5,1.7,8.4c-5.3,7.3-10,9-18.2,1.7c-3.7-3.3-6.3-8.1-10.2-11.1c-4.7-3.5-5-7.3-2.8-11.8
		c1.5-3.2-0.1-8.1-1.7-8.1c-1.6,0-14,6.7-21.4,8.3c-13.6,2.9-27.4,4.7-41.1,6.7c-6.4,0.9-12.9,0.9-19.4,1.5
		c-7.3,0.7-14.5,1.8-21.8,2.4c-9.1,0.8-18.3,1.2-27.5,2.2c-1.7,0.2-4.9,0.9-4.8,3.5c0.1,2.6,3.5,5.8,5.2,5.8
		c11.7,0.2,23.3-0.4,35-0.7c9.8-0.3,19.6-0.7,29.4-1.1c3-0.1,5.9-0.2,8.9-0.5c3.5-0.4,6.9-0.9,10.4-1.5c4-0.6,8.1-1.2,12.1-1.9
		c3.3-0.6,6.4-2.1,9.7-2.2c5.4-0.2,10.9,0.2,16.3,0.4c4.4,0.2,7.1,2.9,8.5,6.8c1.4,3.6-1.2,5.1-3.9,6.5c-6.8,3.6-14.3,6-21.2,9
		c-9.6,4.2-19.1,3.1-28.6,4.2c-8.2,1-16.5,2-24.7,3.4c-4.4,0.8-21.1,1.1-25.7,1.1c-8.8,0.2-17.7,0.8-26.5,0.6
		c-5.8-0.1-11.5-1.5-17.3-2.2c-20.5-2.4-41-4.7-61.5-7.2c-3.7-0.5-7.3-2.1-11.1-2.7c-4.9-0.8-9.9-0.8-14.8-1.7
		c-5.7-1-11.4-2.4-17-3.9c-8-2.1-16-4.4-24-6.6c-2.5-0.7-5.1-2.6-7.5-2.3c-10.3,1.1-19.1-3.2-28-7.3c-5.1-2.4-10.2-4.8-15.4-6.7
		c-4.1-1.5-8.5-6.8-8.6-11.7c-0.1-2.8,5.7-8.7,8.6-10c5.1-2.3,10.1-5,14.9-7.9c1-0.6,1.2-3.2,1-4.8c0-0.5-2.8-1.4-3.8-1
		c-6.6,2.9-13.3,5.8-19.5,9.4c-6,3.5-11.5,8.1-17.4,11.9c-7.5,4.8-14.7,3.3-19.9-3.5c-0.6-0.8-1.8-1.1-2.7-1.7
		c-1.1-0.7-2.5-1.3-3.1-2.3c-1.2-2-2.2-4.2-2.7-6.5c-0.8-3.7-2.7-8.4-1.2-11c3.8-6.8,8.8-13.1,14-18.9c3.7-4.1,16.1-3,20.1,0.5
		c2,1.8,5.7,4.5,7.1,4.2c1.3-0.3,0.7-1.1,1.1-1.7c-2.3-3-3.5-6.9-8.6-7.2c-1.6-0.1-3.2-1.6-4.6-2.6c-2-1.4-3.8-3.1-5.9-4.3
		c-6-3.5-12.1-7.1-18.3-10.3c-4.6-2.4-9.4-4.3-14.2-6.2c-1-0.4-2.6,0.2-3.6,0.9c-0.4,0.3-0.4,1.9,0,2.7c2.5,5.4,5.5,10.3,11.7,12.1
		c3,0.9,3.7,2.6,1.3,5.1c-4.8,4.9-9.3,10.1-14.3,14.9c-7.8,7.5-22.5,7.7-31,1.2c-5.4-4.1-11.1-8.3-17.3-10.5
		c-6.5-2.3-7.8-7.5-10.1-12.4c-0.9-2-1.6-4.5-1.1-6.5c2-8.8,4.6-17.5,6.5-26.4c0.4-1.8-0.9-5.3-2.2-5.8c-3-1.1-4.4,1.4-5.5,4.2
		c-3.4,8.6-7.1,17-10.6,25.4c-1.7,4.2-4.7,5.3-8.9,4.1c-10.4-3-20.9-5.9-31.4-8.9c-5.9-1.7-10.3-6.4-10.5-12.2
		c-0.1-4.7,0.3-9.4,1-14.1c0.6-4.4,1.8-8.7,3.1-14.3c5,2.6,10.2,5,15,7.9c2.5,1.5,4.5,3.9,7.2,0.7c2.4-3,1.1-5.4-1.1-8
		c-4.4-5.4-9.3-9.5-15.7-12.7c-6.2-3.1-11.2-8.7-16.7-13.2c-1.7-1.4-3.1-3.2-5.1-4.1c-1.4-0.6-3.9-0.6-4.9,0.3
		c-3.9,3.3-2.1,11,2.7,12.9c9.3,3.6,12.7,15.8,6.9,22.8c-2.6-0.6-4.9,0.5-6.3-1.6s-0.2-2.7-2.8-7.1c-2.6-4.4-10.1-5.2-13-10.4
		c-1-1.7-2.3-3.3-3.6-4.8c-7.8-9.2-15.8-18.2-23.4-27.7c-4.2-5.2-6.2-12.5-14.1-13.9c-0.4-0.1-0.7-0.6-1-1
		c-2.5-4.6-4.9-9.2-7.4-13.8c-0.4-0.7-1.1-1.2-1.7-1.7c-1.9-1.5-4.3-2.6-5.8-4.4c-3.7-4.5-6.9-9.5-10.6-14.1
		c-4.8-6.1-10-11.9-14.7-18.1c-7.5-9.7-15.1-19.3-22.2-29.3c-4.7-6.6-8.6-13.8-12.7-20.8c-1.4-2.3-2.2-4.9-3.7-7.2
		c-3.4-5.3-7.3-10.4-10.6-15.8c-5.3-8.5-10-17.4-15.8-25.6c-3.2-4.6-5-9.2-6.4-14.5c-1.5-5.6-4.3-10.9-7.2-16.1
		c-0.8-1.4-3.6-2.4-5.4-2.5c-1.7-0.1-1.7,3.7-1.9,5.6c-0.1,1.3,1,2.8,1.6,4.2c1.5,3.6,3,7.3,4.6,11.3c-4.1,0.5-7.4,1.9-9.5-2.4
		c-3.7-7.5-7.5-15.1-11.4-22.5c-1.7-3.2-0.5-5.5,1.6-7.6c2.2-2.3,4.3-1.5,6.6,0.3c3.7,2.7,6.7,1.5,6.8-3.2c0.1-3.6-0.4-7.4-1.7-10.8
		c-1.9-5.1-6.5-14.7-7.6-15.4c-1.1-0.7-3.2,2.3-3.3,3.4c-0.3,2.9,0.1,6,0.2,9c0,1.2,0.2,3.1-0.4,3.6c-6,4.2-16.3,6-20.3-2.4
		c-1.7-3.6-3-7.4-3.6-11.3c-0.5-3.5,1.7-6.6,5.2-7.7c3.2-1,6-4.3,10.1-0.7c2.4,2.2,8.9,5.3,10.6,4.3c1.6-1-3.9-19.3-10.1-26.8
		c-0.8-1-1.8-2.4-3-2.4s-1.9,2.3-2.3,3.6c-0.5,1.7-0.2,3.7-0.8,5.4c-0.5,1.5-1.3,3.4-2.5,3.9c-7.3,3.1-14.9,2.8-18.4-6.5
		c-0.5-1.4-1.8-2.5-2.5-3.9c-1.5-2.7-3.4-5.3-4.1-8.1c-0.5-1.9,0.7-4.3,1.3-6.4c0.6-2.6,0.5-6,2.2-7.4c3.3-2.9,7.4-5.6,11.5-6.5
		c3.1-0.7,13.5,4.4,14.2,1.2c-1.3-8.8-2.6-16.2-3.6-23.7c-0.6-4.7-1.1-9.5-1.1-14.3c0-4.7,0.9-9.5,0.7-14.2
		c-0.3-6.5-1.4-12.9-2.1-19.3c-0.2-1.9-0.6-3.9-0.7-5.8c-0.3-7.1-0.6-14.3-0.8-21.4c0-0.9,0.2-1.9,0.4-2.9c1.6-9.3,5-18.2,2.5-28
		c-1.4-5.6-0.8-11.6-1.4-17.5c-0.4-4-1.5-7.8-2-11.8c-0.2-1.2,0.5-2.5,0.7-3.7c0.8-5.3,2.8-10.8,2-15.9c-1.1-7.5-0.7-14.6,0.4-22
		c0.8-5.8,1.5-11.8,0.5-17.4c-0.6-3.3-0.1-5.7,0.9-8.6c1.7-4.8,5.5-11.2,3.8-14.4c-2.4-4.7,0.1-7.1,0.7-10.4
		c0.6-3.4,1.4-6.9,2.4-10.2c2.1-6.5,4.5-13,6.7-19.5c3.5-10.4,6.9-20.9,10.4-31.3c1.8-5.4,3.5-10.9,5.2-16.3
		c0.8-2.5,1.5-5.1,2.5-7.5c1.4-3,4-5.7,4.5-8.8c1.5-8.3,3.7-15.8,10.1-22c3.3-3.2,5.5-7.5,8-11.5c4.9-7.7,9.5-15.6,14.4-23.3
		c3-4.8,6.3-9.4,9.1-14.2c5.8-9.8,11.3-19.8,17.1-29.6c1.7-2.9,3.6-5.6,5.6-8.3c4.8-6.5,10.3-12.7,14.5-19.6
		c6.6-10.8,15.6-19,25.9-26c1.9-1.3,4.1-4.1,3.9-5.9c-0.3-2.8-2.8-4.2-6.3-4.4c-2.2-0.1-5.6-2.2-6.3-4.1c-2.9-9-3.4-18.4-1-27.8
		c1.1-4.2,5.8-7.6,10.9-8.5c5.3-0.9,8.3,1.4,10,6.1c1.6,4.4,3.2,8.8,5.1,13c1.4,3.2,3.3,6.1,5,9.1c0,0,0.6-0.3,0.6-0.7
		c0.1-7-0.5-14,0.4-20.8c0.8-5.9,3.1-11.6,5.2-17.2c2.4-6.6,9.6-7.8,14.6-11.3c5.2-3.7,13.6,0,16.5,5.8c2.9,5.9,5.7,11.8,9,17.4
		c0.7,1.3,3.2,1.6,4.8,2.4c-0.2-1.4-0.4-2.8-0.6-4.2c-0.1-0.8-0.5-1.6-0.6-2.5c-1.2-14.4-2.4-28.7,4.5-42.3
		c3.8-7.5,3.4-7.7,11.4-7.6c1.2,0,2.3,0,3.5-0.1c7.9-0.6,14.2,3.9,20.2,7.7c3.9,2.5,5.8,7.9,8.8,11.9c2.2,2.9,4.4,6.2,7.9,4.2
		c0.6-2.8,1.8-4.9,1.3-6.4c-1.6-4.2-3.5-8.4-6.1-12c-4.7-6.6-10.3-12.5-14.9-19.2c-1.3-1.9-0.9-5.7,0-8c1.2-3,3.7-5.5,5.9-8
		c4-4.8,7.4-11,12.5-13.7c8.2-4.4,17.9-3.7,27.1-2.1c5.6,1,11.2,1.8,16.6,3.6c4.1,1.4,7.8,3.8,11.3,6.4c1,0.7,1.2,4,0.4,5.3
		c-2.2,3.8-4.9,7.3-7.6,10.7c-3.4,4.3-7.2,8.4-10.5,12.7c-0.9,1.2-0.9,3.2-1.3,4.9c2,0.1,4.4,1,6,0.2c3.7-1.8,7.3-4.1,10.6-6.7
		c8.1-6.3,16-12.9,23.9-19.4c7.2-5.9,14.4-11.7,21.6-17.6c3.1-2.5,4.6-5.5,2.1-9.2c-1.9-2.8-8.7-4-11.6-2c-3.1,2.1-6.3,4-8.8,6.6
		c-3,3.2-6.4,4.3-10.4,3.4c-13.9-3.1-28.7-3.1-40.9-12c-5.7-4.2-9-9.2-8.2-16.6c0.7-6.1,2.6-11.5,9-13c3.4-0.8,7.2-0.5,10.7,0.1
		c9.1,1.7,18.1,4.2,27.6,3.1c3.5-0.4,8.9-0.1,10.4,2c2.3,3.3-1.5,6.4-4.3,9.1c-1.3,1.3-1.5,3.6-2.3,5.4c2.2,0,4.6,0.7,6.4,0
		c4-1.6,7.8-3.9,11.7-5.8c10.3-4.9,21.2-8.7,30.8-14.6c16.1-10,33.9-13.9,51.8-17.9c9.6-2.1,19.5-2.9,29.2-4.4
		c16.3-2.6,32.7-5.2,49-7.9c8.9-1.5,17.7-3.3,26.5-5.2c5.8-1.2,11.6-3.1,17.5-4c13.2-2.1,26.4-4.6,39.7-5.5
		c10.6-0.7,21.6-0.8,31.9,1.6c8.9,2.1,17.6,3.6,26.6,3.3c10.2-0.4,20.4-2,30.5-1.2c13.6,1.2,27.6-0.8,40.9,4c2.9,1.1,6,1.6,9.1,2.1
		c6.7,1.2,13.8,1.2,20.1,3.5c10,3.5,19.5,8.4,28.2,12.3c1.1,8.6-6,9.9-8.8,14.9c7.7-1.1,15.4-2.3,22.4-5c8.7-3.3,17-7.8,25.5-11.6
		c7.7-3.4,20.7,0.2,26.3,6.6c6,6.8,1.9,18.6-4.4,23.3c-6.5,4.9-14.1,8.3-21.4,12.1c-3.8,1.9-7.4,3.6-8.6,8.6c5,2.3,9.7,2.7,14.7,0.5
		c3.5-1.5,7.3-2.4,11-3.6c3-1,6.1-1.7,8.8-3.3c4.3-2.5,8.4-5.5,12.5-8.4c6.9-4.8,10.1-4.9,16.7,0.2c4.2,3.3,8.8,7.1,7.9,13
		c-1,6.4-3.2,12.6-5.5,18.7c-1.6,4.2-4.4,7.9-6,12.1c-0.7,1.9-0.5,4.8,0.5,6.4c0.9,1.4,4.1,2.6,5.5,2c3.9-1.5,8-3.4,10.9-6.3
		c5.9-5.9,10.9-12.7,16.4-19c3.1-3.6,11.3-3.3,14.3,0.4c5.1,6.3,8.4,13.2,8.6,21.6c0.1,4.5,1.7,9.3,3.8,13.3
		c2.7,4.9,6.4,9.3,10,13.7c1.2,1.4,3.4,2,5.2,3c0.4-1.9,1.1-3.7,1-5.6c-0.5-8.2-1.4-16.3-1.9-24.5c-0.2-3.8,2.8-5.9,6.3-4.3
		c1.7,0.8,3.6,2.2,4.5,3.8c3.4,5.7,6.3,11.7,9.5,17.6c2.1,3.8,4.4,7.4,6.6,11.1c0.8,1.3,2.1,2.4,2.5,3.7
		c4.2,14.8,12.3,27.6,20.9,40.1c1,1.5,3.4,2.1,5.1,3.1c0.6-2.2,2.1-4.8,1.5-6.7c-2.5-8.5-5.6-16.7-8.4-25.1c-1-3.2-1.5-6.5-2.3-9.7
		c0.6-0.3,1.2-0.7,1.9-1c7.6,4.9,14.9,10.2,21.2,16.9c5.9,6.2,9.6,14.4,17.7,18.8c3,1.6,5.5,4.3,8.1,6.7c5.1,4.7,10.1,9.6,15.2,14.4
		c3.6,3.4,7.6,6.3,10.8,10c3.4,4,5.6,9.2,9.2,13.1c6.9,7.2,11.8,15.7,16.2,24.4c1.1,2.2-0.1,6.2-1.6,8.6c-0.7,1.2-4.5,1.5-6.6,0.9
		c-3.5-0.9-6.8-2.7-10.2-4.2c-7.9-3.6-14.2-8.9-19.2-16.2c-5.1-7.4-10.2-15.2-16.8-21.2c-10.7-9.7-13.8-9-22-2.2
		c5.7,7.8,11.2,15.8,17.1,23.5c6,7.8,12.4,15.2,19.6,24c-4.2-0.7-7.1-1.5-10-1.5c-1.7,0-3.9,0.7-4.9,1.9c-0.7,0.9-0.4,3.7,0.5,4.6
		c2.3,2.1,4.9,4.2,7.8,5.3c5.6,2.1,11.4,3.6,17.1,5.2c2.2,0.6,4.5,1.1,6.8,0.9c6.6-0.3,13.3-0.9,19.9-1.6c5.4-0.5,8.5,1.9,9.4,7.1
		c0.4,2.4,1.5,4.7,2.2,7.1c0.9,3.1,2,6.2,2.5,9.3c0.6,3.4,0.4,6.9,1,10.2c1.3,7.1,0.4,10.1-4.3,11c-8.7,1.7-17.4,0-25.8-1.7
		c-7-1.4-13.7-4.3-20.7-6c-1.8-0.4-4.8,0.3-5.9,1.6c-2.1,2.5-0.5,5.3,2,6.8c7.5,4.4,15.1,8.6,22.7,12.9c0.8,0.4,2,0.3,2.9,0.4
		c11.1,1,22.2,1.6,32.9,5.1c3.5,1.2,7.3,1.9,9.3,6.6c-8.3,0-15.9,0-23.5,0c-2.1,0-4.4-0.4-6.3,0.3c-2.6,0.9-2.8,4.6-0.4,5.5
		c5,2,9.9,4.1,15.1,5.2c6,1.4,12.2,1.8,18.3,2.6c4,0.5,5.8,2.8,6,6.7c0.4,7.2-5.3,12.6-14.3,16.6c-12.5,5.5-24.6,12-36.6,18.7
		c-1.6,0.9-1.5,5-2.2,7.6c3.6,0.6,7.8,2.8,10.6,1.7c12.3-5.2,24.2-11.2,36.2-17.2c6.8-3.4,13.5-3.8,20.6,0c-6,3.2-11.7,6.1-17.2,9.3
		c-1.6,1-2.5,3.2-3.7,4.8c1.7,0.7,3.6,2.1,5.2,1.8c7.2-1.4,14.3-3.1,21.4-5c3-0.8,4.6-0.2,6.1,2.4c2.2,3.7,4.7,7.4,7.6,10.6
		c8.6,9.6,7.5,19,3.2,26.4c-4.5,7.8-9.3,15.4-12.3,24c-2.2,6.3-8.5,6.9-12.4,1.5c-5.9-8.3-11.5-16.8-17.1-25.4
		c-4.1-6.3-9.4-11.4-16.1-14.8c-1.6-0.8-4.6,0.2-6.5,1.3c-2.6,1.6-1.9,3.9,0,5.9c1.6,1.7,3.1,3.4,4.6,5.2c6.3,7.6,12.5,15.3,18.8,23
		c1.6,1.9,3.8,3.5,4.9,5.6c3.5,6.7,6.6,13.5,9.8,20.4c2.2,4.7,1.8,10.5-0.7,11.7c-3.3,1.7-7.5-1.2-10.1-6.8
		c-0.1-0.3-0.3-0.6-0.4-0.9c-4.4-12.5-13.4-22-21.2-32.2c-1.8-2.4-4.5-4.2-6.8-6.2c-0.6,0.3-1.2,0.7-1.9,1c1.1,3,1.9,6.2,3.3,9.1
		c4.5,10,8.9,20.1,13.8,29.9c4.8,9.7,11.1,18.8,15,28.9c4.5,11.8,7.4,24.2,10.6,36.5c2.7,10.2,4.8,20.6,7.3,30.9
		c0.7,2.6,1.3,5.8,6.7,5.2c0.9-6.8,2.5-13.9,2.6-20.9c0.1-9.3,0.1-18.5-1.8-27.9c-2.3-11.1-6.9-22.4,0.4-34.5
		c4.6-7.6,4.8-17.8,7.2-26.8c1.8-6.8,6.3-13,5.7-20.5c0-0.4,0.5-0.8,0.8-1.3c2.9-4.7,6.1-9.3,8.7-14.1c1.6-2.9,3.6-3.2,6.3-2.2
		c5.7,2.1,7.2,8.8,4.2,15.1c-2.6,5.7-4.7,11.8-6,17.9c-0.5,2.3,1,6.1,2.8,7.7c3,2.6,5.7-0.5,7.5-2.7c2.9-3.6,5.2-7.9,8.1-11.5
		c0.9-1.1,4.3-1.9,4.4-1.7c1.4,2.5,3.2,5.3,3.1,8c-0.1,3.6-1.2,7.3-2.7,10.6c-4.2,9.3-9,18.3-13.3,27.6c-2.4,5.2-5.3,10.5-6.3,16
		c-1,6.1-0.2,12.6,0.1,19c0.1,1.3,1.5,3.4,2.5,3.4c1.4,0.1,3.6-0.8,4.4-2c1-1.5,1-3.8,1.5-5.7c2.7-9.3,4.7-18.8,8.4-27.7
		c3.1-7.3,8-13.8,12.6-20.3c1.1-1.6,4.3-2.8,6.2-2.4c1.5,0.3,3.4,3.2,3.6,5.1c1.4,12.4,2.3,24.9,3.5,37.4c0.6,6.8,1.7,13.6,2.2,20.5
		c0.8,12.5,1.3,24.9,1.9,37.4c-0.6,0.2-1.1,0.4-1.7,0.6c-3.3-4.2-6.5-8.5-9.9-12.5c-0.9-1.1-3-2.3-4.1-2c-1.4,0.5-2.6,2.3-3.3,3.9
		c-0.5,1.1-0.3,2.6,0,3.9c1.9,10.4,9.6,16.1,17.5,21.5c3.7,2.6,7.8,4.6,11.7,6.8C1297,663,1296.6,664.9,1293.6,667.4z M1321.7,705.1
		c0.3,0,0.6,0.1,1,0.1c-1.8,11.9-3.3,23.9-5.5,35.8c-1.8,10-3.8,20.1-6.7,29.8c-2.7,9.1-6.1,18.1-10,26.8c-2.4,5.3-6.3,9.9-9.8,14.6
		c-1.3,1.7-3.4,4-5.1,3.9c-1.5-0.1-3.5-2.7-4.2-4.6c-7.3-18-9.2-36.9-7.2-55.9c1.2-12,5.5-23.7,8.7-35.5c1.7-6.3,3.5-12.7,6.5-18.4
		c4.8-9.1,10.8-17.7,16.1-26.6c2.5-4.1,7.1-5.2,9.7-1.3c2.9,4.3,5.3,9.3,6.2,14.3C1322.5,693.6,1321.7,699.5,1321.7,705.1z"/>
	<path class="st0" d="M409.8,370.8c-2-0.8-4.7-1.7-6.4-1c-4,1.6-7.9,3.8-11.3,6.3c-5.5,4.1-12.4,7.6-10.2,16.7
		c0.2,0.8-0.9,2-1.5,3.1c-1.4,2.4-3.3,4.7-4.1,7.3c-1.1,3.5-1.2,7.2-2.1,10.8c-0.3,1.1-2.1,2.9-2.6,2.7c-1.3-0.4-2.9-1.6-3.4-2.9
		c-1.5-3.5-2.3-7.3-3.9-10.7c-3.6-7.3-12.2-8.5-18.4-3.1c-4.3,3.8-8.2,7.4-10,13.4c-1.4,4.5-0.9,8.3,1.2,11.8
		c0.4,0.6,4.8-1.1,7.3-1.8c0.6-0.2,1.3-0.7,1.9-0.6c2.4,0.2,4.8,0.6,7.3,0.9c-0.3,2.4-0.1,5-1,7.1c-0.9,2.1-2.9,3.6-4.3,5.4
		c-5.2,6.5-11,12.7-15.5,19.7c-5,7.8-8.6,16.6-13.5,24.5c-2.4,3.8-5.8,8.2-9.7,9.5c-6.4,2.2-10.2,6.4-13.8,11.4
		c-2.5,3.5-5.1,6.8-7.7,10.2c-0.4-0.3-0.8-0.5-1.2-0.8c0.5-1.2,0.9-2.4,1.5-3.4c2.2-3.7,4.7-7.2,6.6-11.1c2.4-4.7,4.2-9.7,6.4-14.5
		c2.2-4.6,5.4-9,6.6-13.8c2.7-10.9,4.9-21.9,6.6-33c1.5-10.2,2.5-20.5,3-30.8c0.3-6.1-1.5-12.3,1.8-18.2c2-3.5,4.4-7.3,4.9-11.2
		c1.1-9.2,6.4-15.8,12.5-21.6c9-8.5,19.1-15.9,28.1-24.4c12.7-11.8,29.5-17.7,41.4-30.4c0.2-0.2,0.6-0.4,0.9-0.5
		c8.3-5,16.7-9.9,25-15c11.7-7.2,23.9-12.8,38.3-10.8c3,0.4,6.1,0.1,8.9,1c7.7,2.5,15.1,5.8,22.8,8.2c14,4.5,28.4,6.4,43.1,4.7
		c3.1-0.4,6.2-1.6,9.4-1.7c10.3-0.5,20.7-0.8,31-1.1c3.3-0.1,6.5,0,9.8,0c0.1,0.7,0.3,1.5,0.4,2.2c-2.8,0.8-5.6,2-8.4,2.3
		c-3.1,0.3-6.3-0.4-9.4-0.4c-10,0-19.2,3.2-28.5,6.7c-12.3,4.6-24.6,8.7-34.8,17.5c-3.6,3.1-7.9,5.5-12.1,7.6
		c-1.6,0.8-4.8,0.6-5.9-0.5c-1.1-1.1-1-4-0.6-6c0.5-2.6,1.9-5,2.8-7.5c1.7-4.5,0.6-7.4-3.7-9.4c-5.2-2.5-11.8,0.2-13.3,5.9
		c-1.1,4-1.3,8.3-2.3,12.4c-2.9,11-3,11,6.7,17.1c0.6,0.4,1.2,0.7,1.7,1.1c5.1,4,9.9,4.7,16.4,1.7c9.8-4.6,20.6-7,30.6-11.2
		c13.6-5.8,27.7-9.3,42.2-10.8c17.8-1.8,35.7-2.3,53.5-4.2c11.8-1.2,23.4-0.9,34.9,1.7c12.8,2.9,25.5,6.3,38.1,9.8
		c2.3,0.7,4,3.3,6,5c-1.9,2-3.5,4.5-5.7,5.7c-2,1.1-4.9,1.2-7.3,0.8c-11.4-1.7-22.6-3.9-34-5.6c-7.6-1.1-15.3-1.8-23-2.4
		c-5-0.4-10-0.1-15-0.4c-6.6-0.3-13.3-1.5-19.8-1.1c-16.2,0.9-32.3,2.5-48.5,3.8c-18.3,1.5-35.3,7.4-52,14.3
		c-8.7,3.6-16.9,4.8-25.1-1.4c-2.3-1.7-5.7-2.2-8.6-3.1c-10.4-3-16.1,1.1-18.3,11.6c-0.8,3.8-3.9,5.6-8.3,3.3
		c-3.6-1.8-9.4,0.6-12.6,3.5c-5.5,4.9-3.3,23.3,0,28.4c1.4,2.1,1.7,4.8,2.6,7.2c-2.2,0.3-4.4,0.6-6.5,0.9c-1,0.1-2,0.2-3.3,0.3
		C420.8,382.3,418.1,374.4,409.8,370.8z M363,381.6c15.9-9.2,31.8-18.4,47.1-28.5c10.1-6.7,18.9-15.2,28.4-22.7
		c7.8-6.2,16.2-11.5,23.3-18.4c4.6-4.5,8.3-10.6,10.6-16.6c3.2-8.3-2.9-14.9-11.7-13.4c-10.2,1.8-20,4.5-28.1,12.2
		c-6.2,5.9-14.1,10.1-21.4,14.8c-14.2,9.3-29.1,17.3-42.6,27.9c-12.8,10-22.4,22.5-32.7,34.5c-2.1,2.5-2.6,7.8-1.7,11.2
		c1.3,5.1,6.5,4.9,11.4,6.2C351.4,386.5,357.6,384.7,363,381.6z"/>
	<path class="st0" d="M324.7,244.4c0.7-0.3,2.3-0.7,3.3-1.7c3.5-3.6,6.6-7.6,10.1-11.1c1.5-1.5,4-3.4,5.8-3.2c6,0.7,11.9,2.2,19,3.6
		c-8.2,3.1-13.4,8.2-15.1,16c-0.3,1.2,1.8,2.9,3.2,5.1c11.6-7.5,22.8-14.7,33.9-22c2.5-1.7,4.9-3.6,7-5.7c9.2-8.8,20.4-14.5,31.7-20
		c0.3-0.1,0.7-0.2,0.9-0.5c1.8-2.7,5.6-6.8,4.9-7.8c-2.5-3.6-6-0.5-8.8,0.8c-9.1,4.1-18.2,8.2-27.1,12.8c-3.5,1.8-6.2,5.2-9.8,6.9
		c-11.7,5.5-23.8,6.4-36,1.7c-7.4-2.8-14.7-6-22.2-8.4c-7.2-2.3-13.7,0.7-19.5,4.6c-7.5,5-14.6,10.6-21.8,16
		c-8.2,6.1-16.6,12-24.5,18.5c-17.2,14.4-33.6,29.6-47.2,47.6c-9.5,12.6-19.5,24.8-29.4,37c-9,11-18.8,21.4-27.1,32.9
		c-10.3,14.1-18.3,29.3-19.9,47.6c-1.1,11.8,2.9,21,9.8,29.5c6.7,8.3,11.2,17.8,9.6,28.3c-1.6,10.5-5.4,20.5-10.9,30
		c-5.8,10-11.8,20-12.2,32.3c-0.2,7.1-2.6,14.2-3.9,21.3c-0.9,4.9-1,31.9,0.4,32.9c1.4,1,4.3-21.5,4.5-23c0.9-5.1,1.2-10,4.2-14.8
		c3.4-5.4,5.3-11.8,7.7-17.9c4.6-11.6,9.6-23,16.4-33.6c4.4-6.8,7.3-14.7,11.6-21.6c6.5-10.4,13.6-20.5,20.6-30.7
		c3.2-4.6,6.8-8.9,9.6-13.9c-7.6,0.4-14,2.8-19.5,7.5c-3.6,3-7,6.2-10.5,9.4c-4.9,4.5-11.2,4.4-15.6-0.7c-2-2.4-3.6-5.1-5.1-7.9
		c-0.5-0.9-0.4-2.7,0.2-3.3c5-5.2,7.1-13,15.9-15c4.9-1.1,9.6-5.4,13.4-9.2c9-9,17.4-18.6,26.2-27.7c2.4-2.4,5.5-4.2,9.4-7.1
		c2.9,6.8,5,11.9,7.3,17c0.7,1.6,1.6,3.2,2.8,4.6c1.6,2,3.6,4.1,6.2,1.3c2.1-2.3,5.1-4,2.6-8.4c-3.5-6.1-6.2-12.6-8.9-19.1
		c-2-4.8-0.4-9.6,2.5-13.3c6.1-7.9,12.8-15.3,19.2-23c7.6-9.2,14.8-18.6,22.7-27.6c6.3-7.2,13.1-14.1,20.2-20.7
		c1.5-1.4,4.9-1.4,7.4-1.2c3.1,0.3,6.1,1.4,9.8,2.3c-1,1.6-1.5,2.9-2.4,3.8c-6.9,6.8-14.1,13.3-20.8,20.3
		c-5.8,6-11.3,12.4-16.6,18.9c-1.5,1.8-1.5,4.8-2.2,7.3c0.5,0.5,1.1,1,1.6,1.5c4-2.6,8.8-4.6,11.9-8c13-14.4,27.8-26.4,44.6-36.2
		c15.6-9.1,31-18.6,46.1-28.6c4.6-3.1,9.3-7.3,8.5-14.4c-0.6-5.6-6-10-10.5-7.7c-3.3,1.6-6.3,3.8-9.2,5.9c-2.6,1.8-4.9,4-7.4,5.9
		c-8.1,6.2-16.2,12.3-24.4,18.4c-6.9,5.1-14.7,5.3-22.6,3.5c-3.8-0.9-4.8-4.2-1.7-6.1c5.9-3.5,7.5-10,11.3-15
		c2.2-2.9,3.9-6.1,5.4-10.4c-1.2,0.4-2.8,0.3-3.6,1.1c-2.2,2.3-4.5,4.7-6,7.4c-5.4,10.2-14.6,16.9-22.6,24.6
		c-7.5,7.2-16,13.4-23.6,20.6c-4.2,4-7.3,9.2-11.1,13.6c-5.5,6.2-11.5,12.1-16.9,18.4c-4.7,5.6-8.7,11.9-13.3,17.6
		c-9.2,11.5-18.4,22.9-28,34.1c-7.2,8.4-14.7,16.5-22.5,24.4c-6.6,6.7-15.3,8.9-24.4,8.4c-5.4-0.3-8-5.5-5.9-11.4
		c1.3-3.7,3.8-6.9,5.7-10.4c2.2-4,4.2-8.2,6.4-12.2c4.2-7.6,8.4-15.2,13-22.6c4.7-7.5,9.4-15,14.8-21.9c5.7-7.4,12.5-14,18.4-21.3
		c7.5-9.2,14.5-18.8,22.1-27.9c4.9-5.9,10.4-11.4,15.9-16.8c6.8-6.7,13.6-13.3,20.8-19.5c6.3-5.4,13-10.3,19.7-15.3
		c7.2-5.4,14.4-10.9,21.9-15.9c3.8-2.5,8.2-4.5,12.6-5.9c6.1-2,11,1.3,11.3,7.6C325.9,233.1,325.1,238.5,324.7,244.4z"/>
	<path class="st0" d="M189,536.2c3.2,7.5,6.6,14.4,9.1,21.5c2.5,7,4.3,14.4,6.6,22.2c1.1-0.6,2.8-1.1,3.2-2c2.6-6.4,8.7-7.6,14.2-9
		c5.7-1.5,9.6-4.2,9.1-7.7c-0.4-3.1-6-5.6-11.1-4.8c-2.8,0.5-5.5,1.5-8.2,2.3c-3.1,0.9-5,0.2-5.9-3.4c-1-3.8-3.1-7.4-4.1-11.2
		c-0.5-1.7,0.4-3.8,0.7-5.6c1.8,0.5,3.6,0.9,5.2,1.7c2.4,1.2,5.2,4.2,6.8,3.6c3.1-1.1,6.3-3.7,8.2-6.5c3.1-4.6,5.1-9.9,7.6-14.9
		c0.4-0.7,1-1.4,1.2-2.2c3.8-14,13-24.7,21.5-35.9c4-5.3,6.5-11.9,9.4-17.9c0.5-0.9,0.1-2.8-0.6-3.6c-0.5-0.5-2.6-0.3-3.4,0.4
		c-6.5,4.7-12.3,9.8-17.8,15.9c-8.2,9.2-12.6,20.5-19.5,30.3c-4.8,6.7-11.8,9-19.1,11.5c-1.8-11.8,9.2-17.5,12-28.1
		c-1.6,0.4-3.9,0.3-5,1.5c-4.3,4.3-9.2,8.6-12.2,13.8c-4.6,7.8-8.2,15.7-17.1,20.3c-3.7,1.9-5.9,6.9-8.4,10.7
		c-11.5,17.4-17.2,37.1-21.6,57.2c-1.2,5.6-2.8,11.2-3.3,16.8c-0.4,4.3,0.7,8.7,1.2,13.1c0.1,1.2,0.7,2.3,0.7,3.4
		c0.1,11.4,4.4,21.8,9.2,31.7c3.7,7.7,7.8,15.3,15.3,20.6c6.5,4.6,7.5,12.8,8.7,20.2c0.8,4.9,3.6,7.7,8.2,10.2c0-2,0.1-3.4,0-4.8
		c-0.2-4.2,3.8-11.1,6.9-11.1c4.6,0,7.2,2.9,8.8,7c2.6,6.8,5.4,13.5,8.2,20.2c2.4,5.9,14.7,18.4,19.7,19.9c-0.3,1.2-0.6,2.4-1.3,5
		c3.1-0.9,5.4-1.5,8-2.3c-6.2-11.3-12.4-21.5-17.5-32.2c-2.7-5.8-3.8-12.4-5.1-18.8c-1.9-9.5-8.1-13.2-17.6-10.9
		c-3,0.7-8.1,0.2-9.6-1.7c-2.2-2.9-3.8-8.2-2.6-11.5c2.6-7.6,8.1-13.8,15-18.2c1.6-1,4.3-0.5,6.7-0.6c-0.3-1-0.3-1.8-0.6-1.9
		c-6.1-2.2-4.8-7.8-5.5-12.3c-0.8-5.5,7.7-15.5,13.3-15.8c4.1-0.2,8.3-0.6,12.4-0.4c1,0.1,2.4,2.3,2.6,3.6c0.5,5.3,0.1,10.7,0.9,16
		c0.5,3.7,2.2,7.3,3.8,10.7c0.5,1,2.5,1.7,3.8,1.7c0.9-0.1,2.1-1.6,2.4-2.7c1.8-8.1,3.3-16.2,5.2-24.3c3.6-15.4,7.4-30.7,11.2-46.1
		c2.1-8.3,4.1-16.6,6.5-24.8c1.2-4.1,3.2-7.9,4.8-11.8c1.2-2.8-0.4-3.6-2.7-4c-5.6-1-11.3,2.8-13.9,8.4c-1.8,3.8-4.5,7.2-6.6,10.9
		c-5,8.8-6,18.8-8.2,28.5c-1.1,4.9-1.4,9.9-2.2,14.9c-0.7,4.2-3.3,6.3-7.5,5.3c-6.1-1.6-12.2-3.5-18.2-5.5c-0.9-0.3-1.8-2-1.9-3.1
		c-0.3-2.5,0.1-5-0.1-7.5c-0.1-1.6-0.3-3.2-1-4.5c-0.3-0.5-2.7-0.6-3.1-0.1c-0.9,1.1-1.6,2.8-1.6,4.3c-0.1,6,0.4,12,0.1,18
		c-0.3,5-1.3,9.9-2.4,14.8c-1.8,7.8-3.4,15.6-5.9,23.1c-2.7,8.1-8.3,13.6-16.7,16c-6,1.7-12-0.9-15.1-6.4c-3.8-6.6-7.8-13-6.6-21.3
		c0.3-2.4-1.3-5.1-1.8-7.7c-2.5-14.2,3.2-27.2,6.2-40.5c2.3-9.8,5.9-19.3,9.3-28.8c1.2-3.3,3.4-6.2,5.1-9.2c0.6-1,1.6-2,1.7-3.1
		C177.1,538.4,183.6,538.1,189,536.2z"/>
	<path class="st0" d="M929.1,434.7c-3,1.4-3.1,2.9-1.9,5.4c1.4,2.8,2.8,5.7,3.8,8.7c0.3,0.9-0.7,2.4-1.5,3.4
		c-0.2,0.3-1.8,0.3-2.2-0.1c-3.6-3.7-7.2-7.5-10.6-11.3c-2.7-3.1-4.8-7-7.9-9.6c-6.2-5-13.1-9.2-19.4-14.1c-3-2.3-5.5-5.3-7.9-8.2
		c-0.6-0.7-0.4-2.8,0.3-3.6c0.5-0.7,2.3-0.8,3.4-0.6c7.1,1.2,13,4.9,18.4,9.6c5,4.4,10.8,7.9,17.6,7.5c8-0.5,16.2-0.9,23.7-3.3
		c17-5.4,30.4-0.6,41.2,12.4c6.8,8.2,13.1,17,18.7,26.2c5.1,8.5,9.1,17.7,13.2,26.8c3.6,8,7.5,16.1,9.8,24.6
		c2.7,10.1,6.7,19.7,7.5,30.6c0.6,8.1-0.9,14.9-4,21.6c-4,8.6-9.5,16.6-12.7,25.4c-4,10.9-8,22-4.4,34.3c0.9,3.2-1.9,6.5-6,9.6
		c-0.7-6.9-1.3-12.6-1.9-18.2c-0.3-2.7,0.1-5.5-0.7-8c-4.7-14-7.1-28.9-14.3-42c-0.3-0.6,0.5-1.7,1.1-3.6
		c5.7,4.5,10.8,8.5,15.7,12.4c1.9-3.9,3.9-7.8,5.6-11.9c0.4-0.9-0.1-2.7-0.9-3.4c-10.1-9.5-20.3-19-30.7-28.2
		c-3.2-2.8-7-6.2-11.5-2.2c-6,5.5-12.4,10.9-14,19.6c-0.3,1.7-1.2,3.3-1.9,5.1c-6.1-6.2-6.9-9.5-3.5-16.5c4-8.2,8.3-16.2,12.3-24.4
		c0.6-1.2,1.1-3.1,0.7-4.3c-2-5.2-4.4-10.3-6.7-15.5c-0.5-1.1-1-2.1-1.2-3.2c-1.6-10.5-2-10.7-12.7-11.2c-6.8-0.3-13.8-0.4-19.5-4.8
		c-3.1-2.4-5.8-5.2-8.6-7.9c-2.2-2.2-4.2-4.6-6.3-7c3.6,0.6,6.5,2.4,9.7,3.1c5.7,1.2,11.5,1.7,17.3,2.6c9.7,1.4,10.3,0.7,9.4-9.1
		c-0.7-7-0.7-14-1.1-20.6C938.4,428.3,934.1,432.4,929.1,434.7z M958,448.3c2.1,5.3,1.4,11.7,2.8,17.3c2.1,8,3.8,16.5,7.8,23.6
		c5.5,9.7,12.8,18.3,19.6,27.3c3.9,5.2,8.2,10.1,12.2,15.3c3.3,4.4,8,6.5,12.6,5.1c3.7-1.1,5.6-3.3,6.1-7.5
		c1.4-10-2.7-18.8-4.9-28.1c-5.2-22.4-17-41.2-31.7-58.2c-5.3-6.1-13-9.1-20.6-11C955.7,436.5,955.4,441.5,958,448.3z"/>
	<path class="st0" d="M714.5,1109.3c-5.2-3.2-10.1-7.2-15.6-9.7c-7.4-3.3-15.4-1.3-23.2-0.6c-14.8,1.2-29.6,3-44.4,3.5
		c-11.6,0.4-23.4,0-34.9-1.4c-9.2-1.2-18.1-4.4-27.1-6.8c-2.8-0.7-5.5-2.2-8.3-2.3c-3.7-0.1-8-3.4-7.9-7.1c0.2-4.5,3.4-5.4,7.1-5.1
		c8.8,0.8,17.6,1.7,26.5,2.7c12.9,1.5,25.8,4,38.7,4.4c17.2,0.5,34.5-0.7,51.8-1.1c5.8-0.1,11.7-0.7,17.5-0.2
		c10,0.9,16.7,8.6,24.7,13.6c3.7,2.3,6.1,3.5,10.6,1.3c9.4-4.6,16.8-12.9,27.7-14.7c3.1-0.5,2.6-2.8,1-5c-3.1-4.5-7.5-7-12.6-8.5
		c-3.7-1.1-4.5-3.8-1.6-6.3c1.8-1.5,4.3-2.8,6.6-3c8.4-0.5,14.3,5.4,20.1,10.1c5.2,4.3,5.7,5.2,12,2.2c3.8-1.8,8.1-2.8,12-4.6
		c5-2.3,11.3-2.5,11.7-10.9c0.5-8.1,5.3-14.8,11.7-19.8c1.1-0.9,2.9-1,4.3-1.5c0.3,1.6,0.8,3.3,0.8,4.9c0,1.1-0.9,2.1-1.4,3.1
		c-1.4,3.3-3.1,6.6-4.2,10c-1.2,4,0.8,5.9,4.8,4.5c2.3-0.8,4.2-2.4,6.3-3.7c1.2-0.7,2.4-1.9,3.8-2.1c4.6-0.7,9.3-0.9,13.9-1.4
		c1-0.1,2.3-0.7,2.9-1.5c5-7.1,10-14.2,14.7-21.6c3.3-5.3-0.1-10.5-6.7-10.1c-3.9,0.2-7.7,1.5-12.8,2.6c0.7-2.3,0.6-5.5,2.1-6.6
		c3.5-2.6,7.6-4.7,11.7-6.1c13.1-4.4,26.2-8.5,34.3-21c0.7-1.2,3-1.4,4.5-2c0.6,1.6,1.9,3.3,1.7,4.8c-1.6,9.5-7.7,16.4-14,23
		c-3,3.2-6.3,5.8-7.9,10.6c-2,6.4-5.8,12.3-9.4,18.1c-5.2,8.3-8.5,17.1-8.2,27.1c0,1.8-0.9,4.1-2.1,5.4c-4,3.9-8.9,7-12.4,11.3
		c-8.1,9.7-20,13.5-30.4,19.2c-10.3,5.7-21.7,9.6-33,12.9c-8,2.3-16.7,3.2-25,3.1c-8.4,0-16.9-1.8-25.3-3.2c-5-0.8-10.1-2-10.5-7.8
		C718.2,1110.7,716.1,1110.3,714.5,1109.3z M807.8,1070.5c-6,1.5-11.6,5.2-17.3,8c-12.9,6.4-25.7,12.9-38.5,19.4
		c-3.7,1.9-7.5,3.5-11,5.7c-2.8,1.7-6.7,4.3-4.4,7.8c1.8,2.7,6.2,4.9,9.5,5c6.4,0.2,13-2,19.4-1.8c12.7,0.5,23.5-4.8,34.3-10.1
		c11.1-5.4,21.9-11.5,32.4-18c4.7-2.9,8.7-7.3,12.5-11.5c1.5-1.7,2.7-5.1,2-7c-0.7-1.8-4-2.5-5.7-3.5
		C829.3,1066.6,818.4,1067.9,807.8,1070.5z"/>
	<path class="st0" d="M222.7,901.3c5.7,1.8,11.5,3.4,17.2,5.1c3.8,1.1,8.2,7.2,6.5,9.4c-2.8,3.8-6.1,0.1-9.1-0.1
		c-0.2,0-0.3-0.2-0.4-0.2c-7.4-3.3-14.7-6.6-23.1-4c-1.2,0.4-2.6-0.2-3.9-0.2c-7.5,0.2-14.1-2.9-20.7-5.8c-3.9-1.7-8.3-3.5-10.9-6.6
		c-8.3-9.9-16.6-19.9-23.6-30.7c-9.3-14.3-16.9-29.6-19.5-46.7c-0.4-2.8-0.7-5.6-0.8-8.4c-0.4-6.6-1.9-13.5-0.7-19.8
		c1.9-9.5,6.4-18.5,8.7-28c1.2-5,1.1-10.8-0.2-15.8c-1.5-5.7-4.1-10.9-3.6-17.1c0.3-3.4-0.1-7.2-1.5-10.2c-1.7-3.7-0.3-4.8,3.1-6.3
		c1.1,3.8,2.8,7.2,3,10.7c0.8,9.6,3.4,18.4,9.5,26.1c2.7-2.9,5.1-5.7,7.8-8c1.1-0.9,3.2-0.8,4.8-1.1c0.3,2.1,1.4,4.6,0.7,6.2
		c-2.4,5.6-5.6,10.9-8.4,16.4c-1.6,3-1.6,5.5,1.8,7.7c4,2.6,8.9,2.8,13.9-0.3c3.1-1.9,6.1-3.9,9.8-6.3c0.6,1.9,1.8,3.7,1.3,4.5
		c-2.1,3.5-0.8,7.5-1.6,10.8c-2.2,9.6,6.8,13,9.5,19.8c0.8,2,3.4,3.1,4.9,4.9c3.4,4.1,10.1,6,15.2,4.3c3.2-1.1,3.7-2.9,2.4-5.8
		c-3.1-7.4-6.4-14.7-9.2-22.2c-2.7-7.3-3.7-14.8-0.6-22.4c7.1,1.8,11.2,7.9,11.8,15.9c0.8,12,2.8,23.6,12.1,32.5
		c0.5,0.5,0.9,1,1.3,1.6c2,3.5,4.1,6.9,5.9,10.4c1,1.9,1.2,4.5,2.6,5.8c3,2.6,3.7,5.4,2.3,8.9c-0.5,1.1-1.2,2.1-1.9,3.2
		c-1-0.8-2.3-1.4-2.8-2.4c-2.5-4.3-4.7-8.8-7.2-13.1c-0.7-1.1-2.1-2.3-3.3-2.4c-6.7-0.5-12.9,0.7-17.4,5.5c1.8,4.3,3.6,8.2,5.1,12.1
		c1.4,3.7,3.2,7.5,3.7,11.3c0.9,7.2,5.7,12,10.7,15.4c6.5,4.6,16.1,3.8,20.4,12.9c1.8,3.9,6.6,6.4,9.7,9.8c2.8,3,5.9,6,7.8,9.6
		c2.6,4.9,8.3,8.2,7.9,14.7c0,0.3,0.8,0.6,1.1,1c2.8,3.3,5.9,6.4,8.4,10c4.2,5.9,7.6,12.4,12.1,18c4.3,5.3,9.5,9.8,14.2,14.4
		c-3.5,6-6.2,6.7-10.4,3c-3.4-2.9-7.3-5.7-9.9-9.2c-8.6-11.3-17-22.7-24.8-34.6c-6.2-9.4-11.8-19.4-16.7-29.5
		c-3-6.2-8.5-8.4-13.8-8.1c-6.3,0.3-10.7,4.9-12,11.8c-0.6,3-1.9,5.9-3,9.3C220,899.5,221.2,900.8,222.7,901.3z M211.9,856.5
		c-5.1-15.8-12.3-31-21.4-44.9c-5.2-8-12.2-15-22.2-17.7c-1.9-0.5-3.4-2.1-5.2-2.8c-9.2-3.3-23.3,5.7-23.8,15.3
		c-0.1,2.3,0.6,4.8,1.3,7c6.4,21.5,14.4,42.3,28,60.4c5,6.7,10.3,13.3,16.1,19.3c7.6,7.9,19.9,5.3,24.7-4.7c0.7-1.5,2.1-2.6,2.9-4.1
		c1.1-2,2-4,2.5-5.1C213.8,870.8,214,863.3,211.9,856.5z"/>
	<path class="st0" d="M650.8,263c1.3,1.1,1.8,3,2.7,4.6c-1.8,0.5-3.7,1.6-5.4,1.4c-10.7-1.4-21.3-3.4-32-4.6c-8.3-1-16.7-1-25-1.8
		c-1.4-0.1-2.6-1.9-3.9-2.9c1-1.3,1.8-3.3,3.1-3.7c2.1-0.8,4.6-0.5,6.9-0.7c7.8-0.8,16.1-0.2,23.2-2.8c9.6-3.5,19.1-7.7,26.5-15.7
		c6.2-6.8,13.2-12.9,20.4-18.6c3.6-2.9,8.4-4.5,12.9-5.9c3.9-1.3,8-1.8,12.1-2.2c4.8-0.4,9.7-0.5,14.5-0.3c3.7,0.1,7.5,0.9,11.2,1
		c3.5,0.1,7.1-0.9,10.4-0.4c6.5,1,13,2.4,19.5,4.1c8.2,2.1,16.3,4.5,24.5,6.8c0.8,0.2,1.4,0.9,2.1,1.3c2.9,1.6,5.9,3.1,8.7,4.9
		c3.4,2.1,7.1,3.9,9.9,6.7c3.6,3.7,6.2,8.3,9.6,12.2c7.7,8.7,10.2,19.3,12.1,30.3c1.3,7.3,2.9,14.7,11.8,16.9c0.6,0.1,1.2,0.6,1.7,1
		c6.6,4.5,13.5,8.6,19.8,13.5c3.5,2.7,6.2,6.6,8.7,10.3c2,3.1,0,7.1-2.7,6.1c-4.7-1.6-10-1.5-13.6-6.5c-4.1-5.6-9.1-10.9-14.7-14.8
		c-6.2-4.4-13.5-7.2-20.5-10.5c-5.4-2.6-5.7-3.1-3.1-8.3c0.3-0.7,0.4-1.6,0.3-2.5c-0.3-4-0.2-8.2-1.2-12.1c-0.9-3.5-2.4-7.3-4.6-10
		c-1.6-1.9-5.1-3.3-7.6-3.1c-10.9,1.1-18.3,12.5-14.7,23c1.4,3.9,0,5.4-2.9,5.6c-2.3,0.2-4.9-1-6.9-2.2c-5.8-3.5-6.6-11.6-14.7-13.7
		c-8.1-2.1-15.6-0.4-23.3,0.2c-0.9,0.1-1.9,1.3-2.7,2.2c-3.6,3.8-7.1,7.7-10.6,11.6c-0.6,0.6-1.1,1.9-0.8,2.5
		c0.4,0.7,1.6,1.1,2.5,1.3c9.5,1.2,19.1,1.9,28.5,3.8c6.1,1.2,11.9,4.1,17.8,6.5c1.1,0.4,1.7,2,2.5,3.1c-1.1,0.9-2.2,2.3-3.4,2.5
		c-1.7,0.3-3.6-0.3-5.4-0.6c-6.6-1-13.1-2.4-19.7-2.9c-7.2-0.6-14.5-0.2-21.7-0.7c-6.6-0.4-13.3-1.3-19.9-2.1
		c-3.5-0.4-5.5-3.5-3.8-6c0.8-1.2,2.6-1.8,4.1-2.6c3-1.6,7.5-2.3,8.9-4.8c2.3-4,2.6-9.1,3.5-13.9c0.1-0.7-1.1-2.1-1.9-2.6
		c-4.7-2.8-9.4-5.6-14.4-7.8c-1.3-0.6-3.8,0.4-5.2,1.5c-4.9,3.8-9.5,8-14.3,11.8c-0.8,0.6-2.7,0.9-3.4,0.4c-0.8-0.6-1.4-2.6-1-3.4
		c1.2-2.3,2.7-4.6,4.6-6.3c4.4-3.9,5.5-8.5,2.6-12.5c-4.8-6.5-9-7.7-14.3-3.6c-4.9,3.8-9.4,8.2-14.6,12.9
		C647,261.1,649.2,261.7,650.8,263z M690.7,217.6c-6.1,1.7-11.5,5.7-17,9.2c-1.1,0.7-1.6,3.8-1.1,5.2c1.6,3.9,3.1,8.2,7.8,9.9
		c1.6,0.6,2.9,2.3,4.2,3.5c13,12,28.7,15.5,45.8,14.8c8.2-0.3,16.4,0.1,24.4-0.9c8.2-1.1,16.3-3.4,24.3-5.7
		c4.8-1.4,7.1-11.7,2.9-15.8c-5.7-5.7-10.8-12.7-19.5-14.3c-12.7-2.4-25.5-4.7-38.2-7c-3.6-0.7-7.2-1.3-10.6-2
		C705.9,215.4,698,215.5,690.7,217.6z"/>
	<path class="st0" d="M552.4,82.1c-2.3,0.4-4.7,1.2-6.9,0.9c-8.2-1.1-15.4,2.1-22.7,4.9c-12.1,4.6-24.2,8.8-36.3,13.3
		c-2.6,1-5.1,2.4-7.4,4c-0.8,0.6-1.5,2.5-1.2,3.5c0.3,1,2.5,1.2,3.5,0.9c9.9-2.9,19.7-6.4,29.7-8.9c5.4-1.4,11.3-1,16.9-1.7
		c6.2-0.7,12.4-1.6,19.1-2.4c-2.3,7.6-6.7,13.3-12.3,18.2c-1.1,1-2.1,2.1-3.1,3.3c-3,3.4-2.4,7,0,10.1c2.3,3,6.1,3,8.7,1.1
		c6.6-4.7,13.8-8.7,16.9-17.3c1.5-4.1,4.9-8.2,8.5-10.7c6.3-4.5,12.5-2.7,17.4,3.7c1.7,2.2,4.3,4.2,5.1,6.7
		c1.1,3.5,0.9,7.4,1.3,11.1c0.3,2.3-0.1,5.6,1.2,6.7c1.4,1.1,4.9,0.9,6.8,0c4.9-2.5,8-7,8-12.5c-0.1-6.8,3.7-11,8.5-14.6
		c3.2-2.4,7.5-2.5,10.3,0.3c1.5,1.5,1.4,5.1,1.4,7.7c0,2.1-1.2,4.2-1.6,6.3c-0.6,3-0.1,5.4,3.5,6c3.5,0.6,4.1-1.5,4.6-4.3
		c0.8-5,1.6-10.3,3.5-14.9c0.9-2.2,4.4-3.6,7-4.8c5.2-2.4,10.6-0.9,14.6,2.8c5.8,5.3,10.9,11.1,14,18.4c0.7,1.7,2.5,3.2,4.2,4.1
		c3.7,2,6.5-0.1,6.8-4.3c0.3-5.7-4-8.9-6.4-13.2c-1.4-2.5-3-5.5-2.9-8.2c0.1-5.7,7.8-9.9,14-8.2c2.4,0.7,4.9,1.2,7.3,1.9
		c0.9,0.2,2.1,0.5,2.5,1.1c5.7,9.8,14.5,15.8,24.4,20.4c2.7,1.2,6.3,1.1,9.3,0.7c4.2-0.5,5.2-3.3,2.7-6.9
		c-3.2-4.7-6.8-8.3-12.7-10.3c-5.6-1.9-10.5-6.6-15-10.7c-5.6-5.1-10.6-11-15.8-16.6c-0.9-0.9-2.3-2-2.3-3.1
		c-0.6-7.7-6.6-9.9-12.2-11.7c-5.8-1.8-12.1-3.1-18.1-3c-11.5,0.1-23.2,0.2-34.4,2.3c-12,2.2-24.7,2.4-35.6,9.6
		c-5.1,3.4-10.9,5.9-16,9.3c-2,1.3-5.4,4.9-4.7,6.1c0.8,1.3,1.8,0.6,2.4,0.3c7.9-2.8,16.1-4.9,23.5-8.8c9.9-5.2,20.7-5,31.1-7.3
		c6.1-1.3,12.4-1.9,18.7-2.3c9.3-0.5,18.7-1.2,28-0.4c4.8,0.4,10.3,2.8,13.9,6c5.7,4.9,3.3,12.4-4.5,16.7
		c-10.4,5.7-20.9,9.7-33.3,10.4c-19.7,1.1-39.2-0.8-58.7-2.3c-4.4-0.3-8.8-0.6-13.2-0.8c-2-0.1-5,1.2-5.9,0.3
		c-1.5-1.7-1.8-4.5-2.3-6.8C565.8,82.5,557,81.2,552.4,82.1z"/>
	<path class="st0" d="M1021,333.2c7.6,12.6,16.8,24.4,23.6,37.4c6.8,13,11.4,27.2,17,40.7c-9.2,5.7-11.2,5.6-14.6-1.2
		c-4.3-8.5-8.3-17.1-12.3-25.8c-1.3-2.9-1.7-6.3-3.4-8.9c-7.1-11.1-14.6-22-21.7-33.1c-4.2-6.5-7.4-13.7-12-19.9
		c-5.3-7.1-11.6-13.6-17.7-20.2c-3.7-4.1-7.7-8-11.5-12c6.3-7.1,8.1-7.1,13.9-1.1c2.7,2.8,5.4,5.6,8.5,9c2-6.2,3.3-11.9,10.7-10.8
		c0.5,0.1,1.2-0.5,1.7-0.9c2.9-2,6.8-4.1,5.3-8.2c-1.5-4.1-4-8.6-7.3-11.3c-5.6-4.6-12.9-2.7-19.5-2.4c-5.2,0.2-9.1-2-12.8-4.6
		c-1.5-1-2-3.5-2.9-5.3c2.1-0.7,4.4-2.4,6.2-2c12.7,2.9,25.3,0.7,37.9-0.2c5.5-0.4,10.4-0.1,14.8,3c8.1,5.8,16.5,11.3,24,18
		c5.7,5.1,10.5,11.5,15,17.8c3.4,4.8,6.4,10.1,8.6,15.6c2.5,6.3,4.9,12.8,1.4,19.9c-3.6,7.4-6.6,15.1-9.9,22.6
		c-1.4,3.1-2.8,6.3-4.3,9.7c-1.9-2.4-3.3-4.2-5.6-7c1.6-8.1,4.1-17.3,4.8-26.6c0.2-2.6-4.8-5.7-7.6-8.3c-0.6-0.6-2.7-0.3-3.6,0.4
		c-1.9,1.5-3.5,3.4-5.2,5.3c-1.8,1.9-3.2,4.3-5.3,5.9c-4.2,3.2-6.7,2.3-7.1-2.8c-0.5-6.6-0.6-13.4,0-20c0.5-5.8-1.4-9-7.3-8.7
		c-5,0.3-9.9,1.7-14.8,2.1c-5.2,0.4-10.4,0.1-16.2,0.1C1004.1,309.1,1013.3,320.4,1021,333.2z M1064.6,301.1
		c-6.2-7.3-12.3-14.7-18.9-21.5c-6-6.2-12.7-11.7-19.2-17.4c-3.1-2.7-6.8-1.2-8.5,1.2c-1.5,2.2-2.2,6.6-0.9,8.6
		c3.2,5.4,7.5,10.2,11.6,15c6.8,8,14.1,15.6,20.8,23.7c4.7,5.8,9.5,7.9,14.6,4.6c2.1-1.4,3.4-4.1,5.3-6.6
		C1067.6,305.7,1066.4,303.1,1064.6,301.1z"/>
	<path class="st0" d="M1071.2,898.9c1.6,1.9,3.5,3.6,4.7,5.7c2.4,4.1,4.3,8.4,6.6,12.8c9.9-6.3,18.8-12,27.8-17.6
		c-2.8-3.8-4.9-7.3-7.7-10.1c-6.7-6.8-8.5-14.9-7.7-24c0.3-3.7,2.4-6,6.2-6c3.8,0,6.5,1.6,6.9,5.8c0.2,1.8,0,3.8,0.5,5.5
		c1.8,6.1,1.8,13.7,8.8,16.5c6.9,2.7,13.4,5.2,16,12.9c0.7,2.3,1.3,5,0.8,7.3c-2.4,9.4-8.2,18-5.5,28.6c0.3,1.3-2.6,4.9-3.5,4.7
		c-5.9-1-7,4.2-9.6,7.1c-2,2.2-2.8,5.4-4.8,7.7c-12.8,14.8-25.3,29.8-41.3,41.4c-9.3,6.7-13.6,7.1-23.1,1.1c-2.6-1.6-5.9-2.8-9-2.9
		c-8.5-0.2-16.7,1.5-23.9,6.2c-4.6,3-9.2,6.2-13.8,9.3c-3.3,2.2-8.1,1.6-9.9-1.1c-2.3-3.5-1.6-6.8,2.2-9.4c3.1-2.2,6.1-4.7,9.3-6.8
		c9.7-6.5,19.7-12.4,32-11.3c4,0.3,7.9,1.2,11.8,2c2.5,0.5,4,0.2,4.9-2.7c1.9-5.8,4.3-11.4,6.3-17.2c1.2-3.4,0.5-6-3.9-6
		c-7.5,0-15,0.1-22.5-0.3c-2.6-0.1-5.1-1.7-7.7-2.6c0-0.8,0.1-1.6,0.1-2.5c6.3-2.2,12.5-5.6,19-6.4c6.5-0.8,13.2,0.9,19.9,1.3
		c1.5,0.1,3.7-0.5,4.4-1.5c2.2-3.5,3.8-7.4,5.7-11.1c2.3-4.5,3.7-8.6,1-14.1c-3.1-6.4-4.4-13.7-2.2-21
		C1070.1,899.6,1070.7,899.2,1071.2,898.9z M1101.9,913.3c-5.9,5.8-11.9,11.7-17.2,18.2c-6.9,8.4-13.7,16.9-19.4,26.1
		c-3.6,5.8-7.2,12.6-3.8,20.3c1.9,4.1,4.9,4.8,8.7,3.1c1.8-0.8,3.7-1.9,5-3.4c5.8-6.4,11.7-12.8,17.2-19.5
		c6.3-7.8,12.5-15.7,18.1-24.1c3-4.5,5.1-9.8,6.8-15c1.5-4.7-2.7-9.6-8-10.3C1106.8,910.2,1103.9,911.3,1101.9,913.3z"/>
	<path class="st0" d="M824.3,1119.4c-5.3,1-11.9,2.1-18.4,3.6c-13.4,3-26.6,7.3-40.1,9c-13.8,1.8-28.1,2-42,1.2
		c-9.5-0.5-18.9-3.6-28.6-1.7c-1,0.2-2.2,0.1-2.9,0.6c-9.7,7.1-16.2,0.1-22.8-5.4c-3.9-3.2-7.6-6.1-13.1-6.7
		c-4.6-0.5-9-2.3-13.5-3.6c-0.8-0.2-1.6-0.5-2.4-0.7c-6-1.4-11.7,0.8-12.4,4.8c-1,5.9,4.3,12.3,10.6,12.3c7.4,0,14,1.8,20.2,5.8
		c7.1,4.5,13.1,10.2,18.2,16.9c1.1,1.5,2.1,3.1,3.4,4.3c4.4,4.1,9.7,2.6,11.1-3c1.8-7.3,8.2-11.6,15.8-10.6
		c16.2,2,32.4,4.4,48.6,5.7c7.5,0.6,15.2-0.5,22.9-1.1c16.6-1.1,33-3,48.8-8.4c2.4-0.8,4.7-1.9,6.8-3.2c3.7-2.3,4.6-7.4,2.3-11
		C831.2,1119.9,830.6,1119.4,824.3,1119.4z"/>
	<path class="st0" d="M483,1153.4c14-6.6,13.8-18.5,12.6-31.6c7.5,2.6,13.7,4.9,20,6.8c9.8,2.9,19.5,5.8,29.4,8.1
		c20.3,4.9,40.6,9.6,61,13.9c6,1.3,12.2,1.2,18.4,1.4c1.2,0,2.4-1.2,3.6-1.8c-1-1-1.9-2.5-3.1-2.8c-6.4-1.4-13-2-19.2-3.8
		c-10-2.7-20.6-4.6-29.4-9.6c-8.4-4.8-16.9-8.6-26-11.3c-6.5-1.9-13-3.7-19.4-5.8c-9.5-3.1-18.9-6.4-28.3-9.7
		c-8.3-2.9-16.6-5.8-24.8-9c-4.6-1.8-8.9-4.7-13.6-6.3c-3.3-1.1-7.2-1.8-10.6-1.3c-4.1,0.6-5.3,5.4-2.4,8.5
		c7.8,8.4,15.9,16.6,23.8,24.9c1.2,1.2,2.6,2.3,3.5,3.6c4.7,7,2,13.9-8.1,17.3c-5.3,1.8-11.5,1.1-17.2,1.6c-1.5,0.1-3.1,0.3-4.6,0.4
		c0.8,1.2,1.5,2.7,2.6,3.7c6.2,5.3,13.5,8.5,21.2,11c2.8,0.9,5.7,2.5,7.6,4.7c4.2,4.8,9.3,7.5,15.4,8.8c6.8,1.5,18.2,5.1,20.2,5.1
		s0.7-1.1,1-1.6c-1.8-1.5-3.4-3.4-5.5-4.4C500.6,1169.5,491.8,1162.6,483,1153.4z"/>
	<path class="st0" d="M78.8,687.4c-0.9-1.1-1.7-1.6-1.7-2c0.2-6.8,0.6-13.5,0.8-20.3c0.1-3.8,0-7.7-0.1-11.5c-0.3-8-0.6-16-0.9-24
		c-0.1-1.5-0.1-3,0.1-4.4c1.2-7.4,2.8-14.8,3.8-22.2c0.7-5,0.3-10.1,0.9-15.2c0.7-6.7,1.8-13.4,2.7-20.1c0.4-3,1.2-5.9,1.3-8.9
		c0.4-10.3,0.3-20.6,0.9-30.9c0.2-3.8,1.9-7.5,3-11.2c1.2-4.1,2.6-8.2,3.8-12.4c2.5-8.8,4.4-17.7,7.4-26.2
		c2.7-7.7,6.5-14.9,9.6-22.5c2.4-5.7,4.3-11.5,6.7-17.2c0.6-1.4,2-2.7,3.2-3.7c5.9-4.9,5.4-11.6,4.6-18.1c-0.4-3.5-3.4-3.6-5.6-1.2
		c-2.9,3-5.7,6.3-7.8,9.8c-4.1,7.1-8.1,14.2-11.4,21.7c-3.8,8.6-6.9,17.5-10.3,26.3c-1.3,3.4-2.9,6.8-3.7,10.3
		c-1.5,6.8-2.2,13.7-3.9,20.5c-1.7,6.7-4.2,13.2-6.4,19.9c-4.8,14.7-6,30.1-7.6,45.4c-1.1,10-1.6,20.1-2,30.1
		c-0.2,6.2,0.4,12.3,0.4,18.5c0,2.4-1.1,4.7-1.1,7.1c0,6.1,0.8,12.3,0.6,18.4c-0.3,9.3-1.2,18.7-1.7,28c-0.3,5.3-1,10.7-0.7,15.9
		c0.3,5,6.6,7,10.7,3.8C75.9,690.1,77.1,688.9,78.8,687.4z"/>
	<path class="st0" d="M1152.8,573.7c11.4,0.1,12.8,2.2,16,12.9c4.4,14.6,1,29,0.4,43.5c-0.2,4.3-5,7.9-9.7,7.9
		c-4.6,0.1-7.8-2.1-8.8-6.7c-1.3-6.3-6.1-11.6-4.5-18.7c1.6-6.9,2.4-14.1,3.5-21.1c0.2-1.5,1-3.1,0.7-4.4c-0.4-2-1.6-3.9-2.4-5.8
		c-1.3,1.3-3,2.4-3.9,3.9c-2.8,4.6-4.1,4.6-11,1.1c-4.6-2.3-9.5-4-14.4-5.8c-1-0.3-2.9,0.1-3.4,0.8c-0.6,0.8-0.4,2.6,0.1,3.6
		c3.8,6.2,9.7,9.6,16.7,11.2c2.7,0.6,5.5,1.5,8.1,2.4c0.6,0.2,1.4,1,1.3,1.3c-0.9,5.6,2.8,11.9-2.4,16.8c-4.9,4.7-10,9.3-14.9,14
		c-4.3,4.1-4.4,15.9,0.2,19.8c1.4-2.9,2.6-5.7,4-8.5c2.1-4.4,9.6-7.4,13.9-5.3c1.2,0.6,1.9,2.6,2.4,4.1c3,8.5,2.7,8.3-3.7,14.5
		c-5.4,5.4-10.6,11.1-15.2,17.2c-6.4,8.5-6.6,15.2-0.9,22.9c1.8-3.2,3.7-5.8,4.9-8.7c4.4-10.3,11.6-18.2,20.6-24.8
		c6.6-4.8,13.6-9.1,19.4-14.8c5.4-5.2,6.1-12.8,6-20.2c-0.1-5-0.1-10-0.2-15c-0.2-14.2-0.8-28.3-5.2-42.1
		c-2.7-8.6-8.9-13.1-15.7-17.8c-9.7-6.8-19.1-14.2-28.1-22c-3.1-2.7-4.4-7.4-6.9-11c-4.5-6.5-8.9-13.1-13.8-19.2
		c-8.9-11.2-18.1-22-33.3-27.1c0.6,2,0.6,4.6,1.9,5.9c2.7,2.9,6.5,4.7,9,7.7c5.6,6.6,11,13.5,16,20.6c4.6,6.5,8.7,13.3,12.6,20.1
		c9.5,16.2,22.5,28.9,38,39.1C1153.4,568.2,1154.2,570,1152.8,573.7z"/>
	<path class="st0" d="M826.7,246.2c-1.9,0.9-5.1,2-5,2.6c0.3,2.3,1.1,5,2.7,6.5c5.7,5.3,11.8,10.1,17.7,15.1
		c0.8,0.6,1.4,1.5,2.2,2.1c10.7,8.3,21,17,32.1,24.6c5.7,3.9,12.6,5.8,19.1,8.5c9.2,3.8,18.4,7.5,27.7,10.9
		c3.9,1.4,8.1,1.9,12.2,2.7c4.1,0.8,6.3,2.7,6.4,7.4c0.2,6.7,2,13.1,5.4,19.1c6,10.7,11,22.1,17.2,32.8c6.9,11.7,15.5,22,29.9,24.8
		c1.6,0.3,3.4-0.4,5.1-0.7c-0.5-1.3-0.9-2.7-1.6-3.9c-3.3-6-6.4-12.2-10.2-17.9c-5.8-8.8-12.9-16.8-18.1-26
		c-6-10.5-10.6-21.9-15.6-32.9c-1.4-3-1.4-6.7-3-9.5c-1.4-2.4-4.1-5.1-6.6-5.5c-16.5-2.7-30.8-10.4-45.2-18.2
		c-5.9-3.2-11.8-6.2-17.8-9.4c-0.4-0.2-0.9-0.4-1.4-0.6c-8.7-5.5-17.3-11-26-16.6c-6.7-4.3-13.4-8.8-20.2-13
		C831.7,247.9,829.3,247.3,826.7,246.2z"/>
	<path class="st0" d="M1037.5,728.2c1.8-1.5,3.7-3.4,1.6-6.8c-0.5-0.8-0.1-2.2,0.1-3.3c0.2-1,1.1-2,1-2.8c-1.8-9.7,2.7-18.6,3.4-28
		c0.5-6.6,3.1-13.1,3.5-19.7c0.9-12.5,1-25.1,1.1-37.7c0-3.1-1.3-6.2-2.4-9.2c-0.5-1.3-2.2-2.2-3.3-3.3c-0.8,1.1-1.7,2.2-2.2,2.9
		c-1.8-0.4-4.7-1.6-5.2-0.9c-1.7,2.2-3.7,5.1-3.6,7.6c0.5,8.9,2.4,17.7,2.6,26.5c0.2,9.1-1,18.3-1.6,27.5c-0.2,2.5-0.7,5-1,7.4
		c-1.2,9-3,17.9-3.5,26.9c-0.8,13.8-1.5,27.8,5.2,40.7c1.9,3.8,1.2,6.3-2.3,8.9c-13.1,9.6-21.7,22.4-27.1,37.8
		c-5.4,15.1-11.7,29.9-17.6,44.8c-0.5,1.2-1.2,2.6-1,3.9c0.2,2.2,1.1,4.3,1.6,6.5c1.8-0.7,3.8-1.2,5.2-2.3
		c8-6.2,13.9-13.6,15.9-24.1c0.9-4.7,4.4-8.9,6.6-13.4c2.9-5.7,5.1-11.8,8.6-17c4.9-7.1,10.6-13.7,16.4-20.2c3.5-4,7.9-7.2,11.7-11
		c2.2-2.3,2.2-4.1-0.1-7.5c-3.9-5.9-9.9-10.9-9.5-19.4C1041.5,738.3,1038.9,733.4,1037.5,728.2z"/>
	<path class="st0" d="M413.7,239.1c3.9-4.1,8-7.7,13.5-9.8c9.5-3.6,18.5-8.7,28.1-11.5c9.6-2.8,17.7-7,23.3-15.4
		c1-1.5,2.3-3,2.8-4.7c4.7-16.8,18.7-23.2,33.1-27.7c8.4-2.6,17.9-1.9,26.9-2c9.9-0.2,19.8,0.1,29.6,0.9c2.8,0.2,6.2,2.6,8,5
		c4.9,6.5,10.6,11.6,18.6,13.4c2.5,0.6,5.5-0.1,7.7,0.9c6.2,3.1,12.4,3.2,19,2.2c7.8-1.1,15.5-0.2,23.3,2.1
		c-5.4,6-20.6,9.2-27.4,7.1c-3.9-1.2-8.7-1.8-12.6-0.7c-10.4,3-20.6,7.1-30.8,10.7c-1.1,0.4-2.3,0.3-4.9,0.5
		c3.6-3.4,6.3-5.4,8.3-7.9c1.5-2,2-4.7,2.9-7.1c-2.2-0.6-4.3-1.2-6.5-1.8c-1-0.3-2-0.5-3-0.6c-5.7-0.7-10.7,1.6-11.6,5.3
		c-1.9,7.6-5,8.5-11.1,3.8c-6.3-4.8-11.6-5.9-17.7-0.9c-3.2,2.6-5.5,6.1-8.4,9c-1.3,1.3-3.2,2.1-4.8,3.1c-0.4-2.1-1.6-4.4-1.1-6.3
		c0.7-2.9,0.2-4.5-2.6-5.4c-2.6-0.8-5-1.9-7.6-2.7c-7.3-2.1-14.5,3.6-14.1,11c0.1,2.8,0.6,5.9-4.1,5.5c-2.4-0.2-5,0.2-7.3,1
		c-13.8,5.3-27.6,10.7-41.4,16.3c-9.3,3.8-18.4,8-27.6,11.9c-0.9,0.4-2.2,0.1-5,0.1C411.3,242.1,412.4,240.6,413.7,239.1z
		 M510.7,175.8c-6.6,0.7-10.6,4.8-13.2,10.3c-2.4,5.1,0.4,9.7,6,9.5c6.5-0.3,13-1.7,19.6-2.6c4.6-0.6,9.3-1.9,13.9-1.7
		c9.9,0.5,19.3-1.5,28.6-4.2c2.2-0.6,5.8-3.7,5.5-4.4c-1-2.7-3-6.5-5.3-7c-7.9-1.8-16-2.3-23.2-3.3
		C531.3,173.6,521,174.7,510.7,175.8z"/>
	<path class="st0" d="M156.9,945.2c3.8,6.4,7.5,12.8,11.3,19.1c2.6,4.4,5.2,8.7,8.1,12.9c3.8,5.4,8,10.6,11.8,15.9
		c4,5.5,7.7,11.1,11.7,16.5c1.6,2.1,4.1,3.6,5.5,5.8c7.1,11.4,18.3,18,28.7,25.7c11.1,8.2,21.7,17.1,32.7,25.5
		c4.1,3.1,8.9,5.2,13.2,8.1c2.2,1.5,3.6,4.1,5.6,5.7c3.5,2.9,7.2,5.6,11,8c2.5,1.6,4.8,1.4,6.9-1.5c5.6-7.8,4.5-12-4.1-16.7
		c-4.3-2.4-8.1-5.8-11.9-9c-3.4-2.9-6.3-6.3-9.9-9c-4.9-3.6-10.1-6.8-15.2-10.1c-0.3-0.2-0.7-0.3-0.8-0.5
		c-4.8-9-14.2-13.5-20.9-20.6c-2.8-3-8.1-3.9-10.4-7.1c-4.9-6.8-13.9-8.6-17.8-16.8c-2-4.3-7.3-7.1-10.8-10.7
		c-7.3-7.5-14.4-15.1-21.6-22.7c-5.9-6.2-11.9-12.3-18-18.4c-1-0.9-2.9-1.6-4.1-1.6S157.2,944.7,156.9,945.2z"/>
	<path class="st0" d="M1077.1,1062.7c2.2,0.6,19.9-17.8,29.6-26.6c2.6-2.3,5-4.9,7.6-7.3c9.2-8.5,18.3-17.1,27.8-25.3
		c5.4-4.7,11.6-8.5,17.5-12.5c1.5-1,3.4-2.2,5-2.1c3.7,0.3,5.2-2,7.3-4.2c2.7-2.9,1.2-4.9-0.1-7.5c-0.6-1.1,0.1-2.8,0.2-4.3
		c0.6-10.7,0.6-21.5,2-32.1c1-7.2,4.1-14.1,6.3-21.2c1.4-4.6-0.8-6.6-5.5-7.2c-8.3-1.2-10.6,3.6-14,9.9c-7.3,13.7-5.5,27.6-3.7,41.7
		c1,7.6,0.4,7.9-6.5,11.1c-9.5,4.5-18.6,9.9-25.7,18c-9,10.3-17.8,21-27.7,30.5c-8.3,8-14.6,17.2-20.6,26.8
		C1073.7,1055.1,1074.8,1062.1,1077.1,1062.7z"/>
	<path class="st0" d="M932.5,175.7c3.3,0,5.3,0.1,7.3,0c6.5-0.2,8.8,5.5,12.9,8.8c6.9,5.6,14.5,10.2,21.8,15.2
		c2,1.4,4.1,2.8,6.1,4.3c6.7,5,13.2,10.3,20.1,15c1.5,1,5.2,1.1,6,0.1c1.2-1.5,1.5-4.6,0.9-6.6c-0.7-2-2.6-4.1-4.5-5.1
		c-9.1-4.9-16.1-12.6-24.3-18.4c-8.8-6.2-14-15.2-21.9-21.8c-1.4-1.2-2.2-2.9-3.5-4.3c-3.1-3.5-6.2-6.8-11.8-6.4
		c-3.4,0.2-6.8-1.1-10.2-1.7c-11.5-2.1-22.9-4.2-34.4-6.1c-14.6-2.5-29.4-4.3-44-7.3c-7.2-1.5-14-5.3-21-7.9c-1.5-0.5-3.3-0.2-5-0.3
		c0.7,1.4,1.1,2.9,2.1,4.1c11.5,13.6,27.1,20,43.5,25.1c9.9,3.1,19.6,6.5,29.4,9.8c1.4,0.5,2.8,1.3,4.3,1.4
		C915.4,174.5,924.6,175.1,932.5,175.7z"/>
	<path class="st0" d="M832,1158.2c-5.2,1.6-10.5,3.1-15.7,4.8c-1.7,0.6-3.3,1.7-4.7,2.8c-1.4,1.2-3.9,3.6-3.5,4.2
		c1.4,2.4,3.4,5.7,5.5,6.1c4.1,0.6,8.5-0.3,12.7-1.2c14.3-3.1,28.7-6,42.9-9.8c6.6-1.7,12.7-5,19-7.8c8.4-3.7,16.8-7.5,25.2-11.3
		c8.2-3.8,16.3-7.8,24.5-11.7c3.3-1.6,6.7-3.1,10-4.8c4.6-2.3,9.1-4.7,13.7-7.2c1.1-0.6,2.5-1.6,2.9-2.7c1-2.8,2.8-6.3,1.9-8.6
		c-0.7-1.8-4.9-2.9-7.6-3c-2.7-0.2-5.6,1-8.2,2c-8.5,3.4-16.8,7.3-25.3,10.6c-10.8,4.2-21.9,7.5-32.6,11.9
		c-12.9,5.3-25.3,11.5-38.2,16.8c-5.6,2.4-11.8,3.5-17.6,5.5c-1.8,0.7-3.2,2.6-4.8,4C831.9,1158.6,831.9,1158.4,832,1158.2z"/>
	<path class="st0" d="M1017.2,1026c-4.6-4.2-9.3-3.1-13.1-0.9c-12.4,7.2-26,12.1-37,22c-7.2,6.5-16.5,10.8-24.8,16.1
		c-6.1,3.8-12.1,7.8-18.3,11.4c-5.2,3-10.8,5.3-16,8.2c-6.7,3.8-13.2,8-19.9,11.8c-5.2,3-10.7,5.6-16,8.4c-4.4,2.3-4.7,6.5-3.7,10.5
		c1.1,4.1,4.5,5.7,8.7,5.1c2.3-0.3,4.8-0.5,6.8-1.6c7.3-3.7,14.5-7.7,21.6-11.7c10.2-5.8,20.4-11.6,30.4-17.7
		c5.3-3.2,10.3-6.8,15.3-10.4c6-4.2,11.4-9.5,17.9-12.6c9.1-4.4,16.6-11.1,25.1-16c8.4-4.8,14-11.6,20-18.3
		C1015.5,1029.2,1016.2,1027.6,1017.2,1026z"/>
	<path class="st0" d="M341.6,974.9c-2.4,1.5-5.3,2.3-6.1,4.1c-0.8,1.8-0.3,5.3,1,6.9c4.3,5,9.2,9.6,14,14.2
		c3.2,3.1,6.2,7.1,10.1,8.9c9,4.2,14,13,22.3,17.8c16.1,9.5,31.9,19.6,47.9,29.1c6.2,3.6,12.7,6.8,19.3,9.5c4.7,2,9.8,3.2,14.9,4.3
		c3,0.7,7.8-4,8.2-8.1c0.4-3.5-0.2-6.5-4.4-8.3c-8.8-3.7-17.2-8.3-25.8-12.4c-4.9-2.4-10.2-4.2-14.9-6.9c-7.4-4.2-14.5-9-21.8-13.6
		c-1.4-0.9-2.7-2.3-4.2-2.6c-7.3-1.5-11.8-7.1-17.4-11.1c-8.4-6.1-16.8-12.1-24.9-18.5c-3.5-2.7-6.3-6.3-9.8-9
		C347.6,977.4,344.7,976.5,341.6,974.9z"/>
	<path class="st0" d="M1025.4,445.7c0.3,1,0.5,2.2,1,3.1c7.8,14.5,12.9,30.1,17.7,45.8c2.5,8,6,15.7,7.6,23.8
		c2.1,11.5,2.9,23.2,4.1,34.8c1.1,10.7,1.7,21.4,3,32.1c0.9,7.9,2.1,15.9,4,23.6c0.6,2.4,3.7,5.4,6,5.7c2.2,0.3,6.1-1.9,7.1-4
		c3.4-7.5,5-15.7,3.8-24.1c-3-21.1-5.5-42.2-9.3-63.2c-2.7-15.1-9.2-29-19-41.1c-3.1-3.9-6-8.2-7.8-12.8
		C1039.8,459.7,1032.6,452.8,1025.4,445.7z"/>
	<path class="st0" d="M755,185.9c4.5,2.9,9,5.8,13.6,8.6c7.8,4.9,15.5,9.9,23.3,14.6c5.9,3.5,11.4,7.5,17.5,10.8
		c11.1,5.9,21.3,13.7,31.8,20.7c0.8,0.6,1.5,1.4,2.3,1.9c9.2,5.6,18.3,11.3,27.6,16.7c2.7,1.6,5.8,2.5,8.8,3.3
		c4.3,1.1,10.3-5.5,8.4-9.6c-1.1-2.3-3.4-4.2-5.4-6c-3.5-3.2-7-6.4-10.6-9.4c-6-5-11.8-10.2-18.1-14.6c-4.6-3.2-9.9-5.3-14.9-8
		c-9.7-5.1-19.4-10.5-29.2-15.4c-15-7.4-30.9-11.9-47.3-14.9c-2.3-0.4-4.8-0.4-7.2-0.5C755.4,184.6,755.2,185.3,755,185.9z"/>
	<path class="st0" d="M1156.2,691.5c-1.7,3-3.5,5.9-5,9c-1.2,2.3-2.1,4.8-3.2,7.3c-2.7,6.3-5.3,12.6-8,18.8
		c-1.1,2.6-2.1,5.3-3.7,7.6c-8.2,12-16.8,23.8-25,35.9c-9.4,13.8-18.7,27.7-27.7,41.8c-2.6,4-3.4,8.5,0.2,12.6
		c4.3,4.9,12,3.5,16.9-3.2c7.9-10.7,16.1-21.2,23.3-32.5c5-7.9,8.4-17,12.5-25.5c3.1-6.4,6.6-12.6,9.5-19.1
		c3.4-7.6,6.9-15.2,9.2-23.1c2.2-7.9,2.9-16.1,4.1-24.3c0.2-1.5-0.4-3.1-0.7-4.7C1157.8,692,1157,691.8,1156.2,691.5z"/>
	<path class="st0" d="M675.6,164.3c3-0.2,5.9-0.4,8.9-0.6c6.3-0.5,12.5-1.1,18.8-1.5c8.4-0.5,16.9-0.7,25.3-1.2
		c4.7-0.3,9.4-0.5,14-1.4c4.7-0.8,9.6-1.7,13.9-3.6c6.2-2.8,11.9-2.8,17.7,0.2c10.5,5.4,20.9,11.1,31.4,16.5
		c4.5,2.3,9.1,4.2,13.6,6.4c3.3,1.6,6.5,3.3,9.6,5.3c5.2,3.3,10.5,5.5,16.6,3.2c1.6-0.6,3.5-2.3,3.9-3.9c0.3-1.1-1.6-3-2.9-4.1
		c-9.3-7.6-20.8-10.9-31.6-15.7c-9.6-4.3-18.9-9.2-28.1-14.3c-6-3.3-11.6-7.4-17.4-11.1c-3.8-2.4-7.5-2.5-11.4-0.1
		c-6.6,4.1-13.6,6.9-21.4,7.5c-1.8,0.1-3.7,0.9-5.1,2c-7.7,5.9-16.2,4.5-25,3.5c-8.9-1-18.2-1.6-26.2,3.9c-2.5,1.7-4.1,4.6-6.1,7
		C674.7,163,675.1,163.7,675.6,164.3z"/>
	<path class="st0" d="M996.5,1092c13.1,0.1,21.2-8.6,30.3-15.5c8.7-6.6,17.7-12.8,26.2-19.7c7.7-6.2,15.2-12.7,22.1-19.7
		c9.8-10,18.9-20.6,28.4-30.9c6.6-7.2,12.1-15.1,15.4-24.3c0.4-1.2,0.9-2.7,0.7-3.9c-0.4-2-1.4-3.8-2.1-5.7c-1.7,0.9-3.8,1.4-5,2.7
		c-7.2,8.1-14.1,16.6-21.4,24.6c-8.7,9.5-17.8,18.6-26.8,27.7c-5.5,5.6-11.3,10.9-17.1,16.2c-2.6,2.3-5.7,4-8.4,6.2
		c-7.3,6-14.5,12.3-21.8,18.3c-5.1,4.2-10,8.7-15.5,12.5C995.8,1084.4,995.1,1085.2,996.5,1092z"/>
	<path class="st0" d="M314.6,339.1c0.1-5.1-3.2-7.2-6.2-4.9c-5.8,4.5-11.4,9.2-16.6,14.3c-4.8,4.8-9.3,10.1-13.3,15.6
		c-3.2,4.4-5.3,9.6-8.3,14.3c-7.7,12.1-15.7,24-23.3,36.2c-4.9,7.9-9.3,16.2-14.1,24.2c-3.3,5.5-7,10.7-10.1,16.3
		c-0.9,1.6-1.3,4.8-0.4,5.9c2.2,2.5,4.9,1.8,7.3-0.9c10.1-11.5,19.6-23.3,28.2-35.9c4.9-7.2,11.2-13.3,16.3-20.3
		c5.9-8.2,11.3-16.8,16.7-25.4c6.7-10.8,13-21.9,19.5-32.8C311.8,343,313.6,340.5,314.6,339.1z"/>
	<path class="st0" d="M1216.5,753c1-4-0.9-7.1-4.3-8c-1.9-0.5-5.3,1.5-6.8,3.3c-4.2,5.3-6.2,11.5-7.2,18.5
		c-0.9,6.1-4.2,11.9-6.6,17.8c-4.7,11.2-9.7,22.3-14.3,33.5c-2.2,5.4-3.7,11.1-5.8,16.5c-2.5,6.4-5.4,12.5-7.8,18.9
		c-1.4,3.9-2.2,8-2.9,12c-0.2,0.9,0.9,2.8,1.8,3.1c2.4,0.7,5.6,1.8,7.4,0.9c2.4-1.3,4.2-4.2,5.8-6.7c4.3-7.1,8.6-14.3,12.4-21.8
		c3.5-6.7,6.8-13.5,9.3-20.6c5.5-15.3,10.5-30.8,15.4-46.3c1.6-5,2.1-10.4,3.1-15.7C1215.8,758.5,1216.1,754.8,1216.5,753z"/>
	<path class="st0" d="M102.5,688.4c-0.9,6-2.9,12.1-2.6,18.1c0.4,12.2,2.3,24.3,2.9,36.5c0.2,4.7-0.8,9.7-2.4,14.1
		c-2.2,6.3-10.9,7.3-15.8,2.2c-3.1-3.3-5.9-6.9-9.1-10c-1.3-1.2-3.8-2.1-5.3-1.6c-1.2,0.4-2.7,3.1-2.5,4.5
		c0.9,7.2,2.2,14.4,3.4,21.6C73,784.5,75,795,79.8,805c3.3,6.6,4.6,14.2,7.2,21.2c1.1,3,3.1,5.7,5,8.2c0.4,0.5,2.7,0.4,3.4-0.2
		c1.2-1.1,2.7-3.1,2.4-4.3c-1-4.3-3-8.3-4.2-12.5c-2.8-10.2-5.5-20.5-7.9-30.9c-1.2-5.3,1.9-8.4,7.4-8c6.7,0.6,11.1-2.3,14.8-7.9
		c5.7-8.6,6.3-17.6,4.7-27.5c-1.1-6.6,0-13.5,0-20.3c0-8.3,0.7-16.7-0.4-24.8c-0.5-3.7-5.1-8.7-7-10.5
		C103.1,685.8,103.3,688.2,102.5,688.4z"/>
	<path class="st0" d="M294.7,1013c-2.7-4.5-6.4-8.6-7.8-13.4c-2.7-9-9.7-12.5-17.3-15.1c-7.9-2.8-16.2-4.6-24.3-7
		c-2.8-0.8-6.4-1.2-6.3-5.5c-7.3-2.8-6.4-11.1-10.9-16.1c-4.2-4.7-6.2-11.5-8.9-17.5c-2.3-5-5-9.3-10.7-10.9
		c-2.5-0.7-4.7-2.6-7.2-3.5c-5.8-1.9-11,0.4-12.5,5.2c-1.2,4.1,2.7,9.7,7,12c7,3.8,13.7,8.4,20.4,12.7c0.6,0.4,1.1,1.3,1.4,2
		c3.4,8.9,6.9,17.7,13.1,25.1c2,2.4,3,5.6,4.4,8.5c2,3.9,5.1,6.4,9.6,6c9.5-0.8,16.9,3.6,24.2,8.7c4.6,3.2,9.3,6.2,13.7,9.6
		c1.4,1,2,3,3.1,4.3c1.2,1.5,3.2,4.1,3.9,3.9c1.9-0.7,3.6-2.6,4.9-4.3c0.9-1.3,1.1-3.1,1.6-4.7
		C295.6,1012.9,295.2,1012.9,294.7,1013z"/>
	<path class="st0" d="M910.6,1026.8c3.4,1.8,6.3,3.7,9.5,4.9c1.2,0.5,3.2-0.3,4.5-1.1c12-7.5,24.1-15,36-22.8
		c7.9-5.2,15.7-10.7,23.4-16.2c2-1.4,3.6-3.5,5.4-5.3c2.9-2.7,5.6-5.7,8.8-7.9c7.7-5.2,12.2-16.1,9.2-23c-1.4-3.2-3.5-4.6-6.7-3.2
		c-3.6,1.7-7.3,3.4-10.4,5.9c-12.4,10-24.5,20.2-36.6,30.5c-2.5,2.1-4.4,5.1-6.9,7.3c-5.1,4.6-10,9.4-15.7,13.1
		C923.5,1014.1,916.6,1019.7,910.6,1026.8z"/>
	<path class="st0" d="M685.7,1180.5c-1.2,0-2.2-0.1-3.2,0c-14.7,1.9-29.5,3.5-44.1,5.7c-13.8,2.1-27.5,1-41.3,0.8
		c-7.5-0.1-15-1.4-22.5-1.8c-1.7-0.1-4.4,1.2-4.9,2.6c-1.3,2.9,1.4,3.2,3.6,3.9c9.2,3.1,18.6,5.1,28.2,5.6c9.4,0.5,18.9,0,28.3,0
		c9.3,0,18.6,0.2,27.8-0.1c13.5-0.4,26.8-1.9,40-5.5c6.5-1.8,13.5-1.6,20.2-2.6c6.5-1,13.1-1.9,19.5-3.8c5.3-1.5,7.5-8.9,4.6-13.7
		c-0.5-0.8-2.4-1.5-3.4-1.3c-6.7,1.6-13.3,3.5-19.9,5.2c-1.2,0.3-2.6,0.4-3.8,0.7c-2.3,0.5-4.7,1.1-7,1.7c-0.5,0.1-0.9,0.6-1.3,0.7
		C699.4,1179.3,692.4,1179.9,685.7,1180.5z"/>
	<path class="st0" d="M1068.9,387c0.3,0.8,0.6,1.9,1,3c3.4,8,6.5,16.1,10.5,23.9c3.1,6.1,7.4,11.6,11.1,17.5
		c5.6,9.2,11.5,18.2,16.5,27.7c7.2,13.7,13.8,27.8,20.7,41.8c1.7,3.5,4.3,6.6,8.1,4.4c3.1-1.7,4-5.4,2.9-9.5
		c-2.1-7.8-2.5-16.2-5.7-23.5c-4-9.3-9.6-18-15.1-26.5c-7.6-11.8-15.8-23.2-23.6-34.8c-5.2-7.8-10.2-15.7-15.4-23.4
		c-1.3-1.8-3.1-3.5-5.1-4.6C1070.8,380.8,1068.8,382.2,1068.9,387z"/>
	<path class="st0" d="M533.3,160.2c15.7,0,31.4,0.3,47.1-0.1c12.8-0.3,25.6-1.9,38.3-2c11.9-0.1,23.7,1,35.6,1.5
		c2.8,0.1,5.7,0,8.4-0.5c1.2-0.3,3.1-2,3.1-3c-0.1-1.7-1.3-4.5-2.4-4.7c-11.9-2.3-24-4.2-36-6c-3.6-0.5-7.3-0.4-11-0.6
		c-13.4-0.6-26.8-2.4-40.1-1.4c-16.1,1.2-32.6-0.1-48.2,5.4c-2.5,0.9-5,2-7.3,3.4c-1,0.7-1.8,2.3-1.9,3.6c-0.1,0.8,1,2.4,1.8,2.6
		c4.1,1.1,8.3,1.9,12.5,2.7C533.2,160.8,533.3,160.5,533.3,160.2z"/>
	<path class="st0" d="M498.1,1224.9c0.8,1.3,7.1,4.9,10.9,6.6c12.5,5.3,25.3,9.7,37.6,15.3c8.9,4.1,17.4,9.2,25.8,14.5
		c6.2,3.9,7.1,3.9,12.3-1.2c2.5-2.5,6-4.4,9.3-5.5c6.3-2.1,12.9-3.8,19.5-5.1c4.2-0.8,8.6-0.4,12.9-0.8c5.1-0.4,8.7-4.7,7.5-9.7
		c-0.3-1.3-2.7-3-4.1-3.1c-9.7-0.4-19.3-0.4-28.2,5c-5.4,3.3-11.5,5.2-17.3,7.7c-3.2,1.4-8.3-1.6-12.2-4.8
		c-5.1-4.3-9.9-9.2-17.2-10.7c-5.9-1.2-11.4-4.8-17.3-5.7c-12.7-2.1-37.3-3.9-38.4-4.8C498.1,1221.7,497.3,1223.6,498.1,1224.9z"/>
	<path class="st0" d="M430.8,1118.8c1.5-5.1,0.8-8.9-2.9-11.9c-0.3-0.2-0.5-0.5-0.7-0.7c-7.1-6.8-13.5-14.8-21.5-20.3
		c-9.2-6.3-17.6-13.2-25.4-20.9c-5.3-5.2-9.4-11.6-14.1-17.4c-7.8-9.7-15-20.1-27.1-24.9c-3-1.2-6.9-1.4-10-0.6
		c-1.2,0.3-1.7,4.5-2.1,7c-1.5,8.9,4.8,13.4,10.6,18c5.5,4.3,11.3,8.3,17.1,12.3c10,7.1,20.6,13.5,30.1,21.2
		c7.8,6.4,13.8,14.9,21.6,21.3C413.8,1108,420.3,1115.9,430.8,1118.8z"/>
	<path class="st0" d="M762.8,1191.7c-7.7,2-14.4,3.4-20.9,5.5c-14,4.5-28,8.7-42.9,9.3c-7.9,0.3-15.8,2.3-23.7,3.2
		c-7.6,0.9-15.2,1.4-22.8,2.2c-8.8,0.9-17.6,1.8-26.4,2.7c-3.5,0.3-7,0.3-10.4,1.1c-1.6,0.4-3.8,1.4-4.3,3.4c-0.5,2,3.1,4.5,4.5,4.4
		c7.1-0.4,13.9,2.5,21.3,0.8c8.6-1.9,17.8-1.2,26.8-1.8c5.3-0.4,10.5-1.2,15.8-2.1c10.1-1.7,20.3-2.9,30.2-5.3
		c17.8-4.5,36.6-5,53.3-13.5c1.9-1,3.5-3.6,3.9-5.8C767.3,1194.7,764.4,1193.1,762.8,1191.7z"/>
	<path class="st0" d="M1223.9,723.4c1.6,2.1,16-4.8,16.5-14.1c0.7-13,1.7-26.1,1.9-39.2c0.3-15.6-2.9-30.6-9.5-44.9
		c-2.3-4.9-4.1-10.1-6.9-14.8C1225.2,648,1222.2,721.3,1223.9,723.4z"/>
	<path class="st0" d="M343.8,941.6c-0.9-1.4-1.8-3.3-3.2-4.9c-6-7-12.2-13.9-18.3-20.9c-4.4-5.1-9.7-9.7-12.9-15.5
		c-5-9-14.2-15.1-16.8-25.7c-0.7-2.8-3-5.2-4.2-7.9c-1.7-3.7-3.1-7.7-4.9-11.4c-1.7-3.5-3.2-7.2-5.8-9.9c-1.1-1.2-5.3-0.9-7,0.3
		c-2.6,1.8-2.3,4.7-0.2,7.5c1.9,2.5,3.7,5.3,4.7,8.3c2.6,7.2,4,14.9,7.3,21.8c3.3,6.9,8.2,13,12.7,19.3c3.8,5.5,7.9,10.8,11.9,16.1
		c5.3,7.1,10.1,14.6,16.1,21c4.1,4.4,9.8,7.2,15,10.5c0.6,0.4,2.9-0.5,3.3-1.4C342.6,946.9,343,944.5,343.8,941.6z"/>
	<path class="st0" d="M829.5,329.5c-4.9,0.9-7.7,4-8.1,7.8c-0.2,2,2.5,5.6,4.7,6.4c6.6,2.3,11.9,6,17.4,10.3
		c10.5,8.4,21.8,15.8,32.7,23.8c3.4,2.4,6.4,5.3,9.6,8c2.1,1.8,4.5,3.3,6.5,5.2c1.2,1,1.8,2.7,3,3.7c1.7,1.3,3.7,2.2,5.6,3.2
		c0.9-2,2.8-4.2,2.4-6c-3.2-15.6-12.7-26.5-26.2-34.3c-4.3-2.5-8.5-5.1-12.8-7.7c-4.7-2.8-9.5-5.4-14.1-8.2
		c-5.1-3.1-10.2-6.3-15.3-9.3C833.1,331.2,831.1,330.4,829.5,329.5z"/>
	<path class="st0" d="M930.9,961.8c4-1.9,8.2-3,11.2-5.5c7.2-6,14-12.4,20.6-19.1c5.1-5.1,9.6-10.8,14.1-16.4
		c7.2-8.8,13.9-17.9,21.3-26.6c5.8-6.8,9.5-14.5,11.9-23c0.5-1.6,1.2-3.3,0.9-4.9c-0.2-1.2-1.6-2.4-2.7-3.1c-0.4-0.3-2,0.8-2.6,1.6
		c-7.6,9.5-15.2,19-22.6,28.7c-3.2,4.2-5.3,9.4-8.7,13.4c-5,5.9-10.6,11.3-16.2,16.5c-8,7.5-16.1,14.9-24.4,22.1
		C928.5,950.2,928.7,955.3,930.9,961.8z"/>
	<path class="st0" d="M1079.3,760.2c-4.9,3.5-8,5.6-8.5,11.2c-0.4,4.4-4.2,8.4-6.4,12.7c-3.1,6-5.7,12.4-9.4,18
		c-5.8,8.9-12.6,17.2-18.4,26.1c-3.6,5.6-6.1,11.9-9,17.8c-0.2,0.4-0.2,1.3,0.1,1.4c3.5,1.9,6.8,4.2,10.5,5.2c1.7,0.5,5-1.2,6.1-2.9
		c10.4-16.4,21.8-32.2,27-51.3c1.6-5.9,3.6-11.7,5.4-17.5c1.3-4.1,3-8.1,3.8-12.2C1080.9,766.4,1079.9,763.7,1079.3,760.2z"/>
	<path class="st0" d="M547.4,68.2c-6.7,1.4-13.3,2.8-20,4.2c-12,2.5-24.1,4.9-36,7.8c-5.4,1.3-10.6,3.2-15.8,5.1
		c-9.9,3.6-19.8,7.1-29.5,11c-4.9,2-9.6,4.7-14,7.6c-1.3,0.8-1.9,3.7-1.5,5.4c0.2,0.9,3.2,1.9,4.8,1.7c6.5-0.7,13.4-0.8,19.5-2.9
		c9.8-3.2,19-8,28.6-11.8c7.2-2.9,14.6-5.3,22.1-7.7c8-2.6,16.6-3.4,24-8.5c3.8-2.6,9.3-2.5,13.7-4.3c2.2-0.9,3.8-3.3,5.7-5
		C548.4,70,547.9,69.1,547.4,68.2z"/>
	<path class="st0" d="M137.3,658.9c0.5-7.3,0.6-14.6,1.5-21.8c0.4-3.6,2.3-7,3.5-10.4c2.1-6.1-1.7-10.7-5.2-14.2
		c-1.8-1.8-7.8-1.9-10-0.2c-3.1,2.4-5.8,6.9-6.2,10.8c-1,10.4-1.1,21-0.6,31.5c0.3,7.3,1.8,14.6,3.4,21.8c0.9,3.8,3,7.3,4.8,10.8
		c1.4,2.7,6.6,1.8,7.8-1.5c0.8-2.1,0.5-4.5,0.6-6.8c0.3-6.7,0.6-13.3,1-20C137.6,658.9,137.5,658.9,137.3,658.9z"/>
	<path class="st0" d="M364.6,176.2c3.3-1.4,6.7-2.7,10-4.1c14.4-6.2,28.7-12.7,43.3-18.5c7.7-3.1,15.9-5,23.9-7.5
		c1.1-0.3,2.2-0.9,3.2-1.4c8.3-4,8.6-4.7,5.8-13.4c-0.4-1.2,0.3-3.8-0.7-4.7c-1-0.9-6.1,0.6-9.2,1c-14,1.5-25.2,8.9-36.4,16.8
		c-11.6,8.2-23.6,15.7-35.3,23.7c-2.4,1.7-4,4.6-6,6.9C363.8,175.2,364.2,175.7,364.6,176.2z"/>
	<path class="st0" d="M947.5,265.5c-0.7-1.2-1.6-3.6-3.2-5.3c-11.4-12.2-23.8-22.9-38.8-30.8c-11-5.8-20.8-13.8-31.2-20.8
		c-3.4-2.3-6.7-5-10.4-6.4c-1.7-0.6-4.6,1.2-6.4,2.5c-0.5,0.4-0.1,3.7,0.9,4.5c7.6,5.9,14.2,12.8,23.3,16.9
		c8.5,3.9,15.7,10.5,23.4,16c4.2,3,8.9,5.6,12.4,9.3c6.2,6.5,11.5,13.8,17.5,20.5c1.7,1.9,4.5,3.4,7.1,3.9
		C945.2,276.5,947.4,272.4,947.5,265.5z"/>
	<path class="st0" d="M105.3,865.5c2.6,5.8,4.7,11.1,7.3,16.1c6.5,12.5,13.3,24.9,20.1,37.2c1.5,2.8,3.4,5.5,5.7,7.6
		c1.3,1.2,4.3,1.9,5.6,1.1c1.3-0.8,2-3.6,1.9-5.5c-0.1-2.3-1.6-4.5-1.8-6.7c-0.2-1.8,0.9-3.8,0.9-5.7c0.1-2.8,0.7-5.9-0.3-8.3
		c-4.5-10.1-9.4-20-14.5-29.8c-0.8-1.5-3.7-3.5-4.8-3.1c-5.2,1.9-7.1-1.6-9.9-4.6c-1.5-1.6-4.4-2.5-6.7-2.6
		C107.8,861.2,106.6,863.8,105.3,865.5z"/>
	<path class="st0" d="M1103.7,601c-4.9,0.3-6.1,1.6-7,5.7c-3.9,17.8-4.3,36.2-10.3,53.8c-3.8,11.1-5,23.1-6.9,34.8
		c-0.6,3.7-0.8,7.8,3.1,10.5c0.6,0.4,0.9,1.4,1.4,2c1.4,1.6,2.8,3.2,4.2,4.7c1.9-2.1,4.2-4,5.6-6.4c0.8-1.4,0.3-3.7-0.1-5.4
		c-2.9-12.6,0.6-24.6,3.3-36.7c3.4-15,7.6-29.9,6.8-45.5C1103.5,612.7,1103.7,606.9,1103.7,601z"/>
	<path class="st0" d="M1021.3,217.6c-0.4,2.7-1.3,5-0.8,6.8c0.8,2.8,2.2,5.7,4.1,8c4.1,5.3,8.6,10.2,13,15.3c1.7,2,3.3,4.2,5.1,6.2
		c3.1,3.4,6.4,6.6,9.6,9.9c3.4,3.5,6.8,7,10.1,10.4c3.4,3.5,6.4,7.5,10.2,10.3c2.5,1.8,6.4,2.5,9.6,2.6c3.4,0,4.9-4.5,2.5-7.4
		c-4-4.8-8.7-9.1-12.8-13.9c-4.1-4.8-7.5-10.1-11.5-14.9c-2.8-3.3-6-6.2-9.1-9.2c-6.4-6-12.7-12.2-19.3-17.9
		C1029.3,221.7,1025.8,220.3,1021.3,217.6z"/>
	<path class="st0" d="M1078.9,864.6c-2.2-1.9-4-4.7-5.9-4.8c-2.6-0.1-6.9,1.3-7.6,3.1c-4.3,11.7-14.9,18.4-21.5,28.2
		c-1.7,2.5-5.1,3.9-7.1,6.3c-3.9,4.6-7.6,9.3-10.9,14.3c-1.7,2.5-0.6,4.3,2.4,5.8c7.2,3.6,12.1-0.7,16.3-4.9
		c10-10,19.9-20.3,28.8-31.3C1076.7,877.3,1077,870.8,1078.9,864.6z"/>
	<path class="st0" d="M1200.9,659.1c-1.2,4.7-2.8,9.3-3.4,14c-1.8,14-1.7,28.3-7.8,41.6c-3.4,7.5-6,15.3-9,23
		c-0.5,1.3-1.4,2.8-1,3.8c1.2,3.1,2.7,9,4.4,9s5.7-2,7.2-4c9.7-12.6,13.3-27.2,15.4-42.8c1.8-13.2-0.7-25.6-2.1-38.3
		c-0.2-2.2-1.5-4.2-2.3-6.3C1201.9,659,1201.4,659.1,1200.9,659.1z"/>
	<path class="st0" d="M1059.8,650c-0.7,19.9-2,39.7-5.9,59.4c-0.8,4.1-2.3,8.8,2,12.2c3.6,2.9,6.6,2,7.4-2.4
		c3.6-19.7,7.2-39.4,10.1-59.2c0.6-4.3-1.3-9.1-2.7-13.4c-1.1-3.4-3.6-6.9-7.8-4.2c-2.1,1.3-3.1,4.6-4.5,6.9
		C1058.7,649.5,1059.2,649.8,1059.8,650z"/>
	<path class="st0" d="M1076.7,353.8c1.6,4.1,2.9,8.4,5,12.2c2.6,4.8,5.9,9.1,8.8,13.7c1,1.5,1.4,3.4,2.2,5.1
		c4.8,9.6,9.6,19.3,14.5,28.9c0.4,0.9,1.1,1.9,1.9,2.3c2.2,1,4.6,1.8,6.9,2.6c0.8-2.4,2.7-5,2.3-7.1c-2.5-11.2-4.9-22.5-12.4-32
		c-7.8-9.8-15-20.1-22.5-30.2c-0.9-1.1-2.3-1.8-3.5-2.7c-0.9,1.6-1.9,3.3-2.7,5c-0.2,0.5,0.1,1.3,0.2,2
		C1077.1,353.7,1076.9,353.8,1076.7,353.8z"/>
	<path class="st0" d="M780.7,63.5c-9.4-0.5-18.9-1.2-28.3-1.5c-3-0.1-6,0.8-9,0.8c-10.5-0.1-20.9-0.6-31.4-0.7c-1,0-2.5,1-2.8,1.8
		c-0.3,0.8,0.4,2.8,1.2,3.1c2.3,0.9,5,2.1,7.1,1.6c8.1-1.9,15.4,0.5,23,2.7c8.8,2.5,17.8,4.3,26.8,6.1c6,1.2,12.2,2.1,18.3,3.1
		c1.1,0.2,2.4,0.2,3.5,0c5.3-0.9,9.5-5,9.1-8.6c-0.4-3.9-3.9-6.3-9.7-7c-2.6-0.3-5.2-1.1-7.8-1.7C780.7,63.2,780.7,63.3,780.7,63.5z
		"/>
	<path class="st0" d="M901.8,333.2c-4.2-0.2-6.2,2.8-4,6.2c2.8,4.3,6.4,8.1,9.9,11.9c7.1,7.5,14.6,14.6,21.4,22.4
		c5.7,6.5,10.7,13.7,16.2,20.5c1,1.3,2.5,2.4,4,2.9c1.2,0.4,3.1,0,4.1-0.8c0.6-0.5,0.6-2.7,0-3.6c-6.8-11.6-12.3-24-20.9-34.8
		c-7.6-9.6-17.4-15.8-26.8-22.8C904.5,334.1,902.8,333.6,901.8,333.2z"/>
	<path class="st0" d="M105.1,566.9c0.9-3.4,2.3-22.7,3.3-26.1c1.9-6.3,4.2-12.5,6-18.8c2.4-8.3,7.3-15.2,11.7-22.4
		c2.9-4.7,4.6-10.2,3.2-16.1c-0.4-1.8,0.5-3.9,0.5-5.9c-0.1-1.8-0.6-3.6-1-5.4c-1.5,0.3-3.5,0.1-4.4,1c-3.5,3.7-7.5,7.3-9.7,11.7
		c-5.6,11-10.3,22.5-11.5,34.9c-0.7,6.9,0.2,14,0.4,21c0.1,3.3-2.2,25.7-2,29C105.2,571.1,104.6,566.7,105.1,566.9z"/>
	<path class="st0" d="M761.4,101.6c11.2-0.4,13.9-7.7,9.8-14.6c-1.6-2.7-6.3-4.8-9.6-4.9c-11.5-0.2-23.1,0.5-34.6,1.1
		c-1.6,0.1-3.2,1.4-4.8,2.1c0.8,1.4,1.5,2.9,2.5,4.3c7,9.7,18.2,8.9,28.2,11C755.7,101.1,758.6,101.2,761.4,101.6z"/>
	<path class="st0" d="M500.6,249.3c3.4-0.4,6.8-0.5,10.1-1.2c5.3-1.1,10.6-3,15.9-4c13.7-2.7,27.5-5.3,41.3-7.5
		c6.6-1.1,13.4-0.9,20-1.6c3.1-0.3,6.3-1,9.3-1.9c1-0.3,2.3-1.8,2.3-2.8c0-0.9-1.5-2.5-2.4-2.5c-6.1-0.5-12.3-1.1-18.4-0.8
		c-24.1,1.2-47.1,8-70.2,14.2c-3.2,0.8-5.8,3.5-8.7,5.3C500.1,247.5,500.3,248.4,500.6,249.3z"/>
	<path class="st0" d="M570.5,1209.9c-9.8-0.7-19.6-1.2-29.3-2.3c-3.5-0.4-6.9-2.2-10.4-3.2c-1.3-0.4-2.7-1-3.9-0.8
		c-2.2,0.5-5.2,1-6.1,2.5c-0.9,1.5-0.3,5.1,1,6.3c2.2,2.2,5.4,3.8,8.4,4.9c2.9,1,6.2,1.3,9.3,1.6c10.7,0.8,21.5,1.5,32.2,2.2
		c1.8,0.1,3.8-0.3,5.5,0.2c5.5,1.7,7.2-2.3,8.5-6c0.4-1.1-2-4.2-3.6-4.7c-3.6-1.1-7.6-1.2-11.4-1.6
		C570.6,1209.3,570.6,1209.6,570.5,1209.9z"/>
	<path class="st0" d="M754,326.1c4.1,5.4,7.9,8.3,13.9,8.2c5.3-0.1,10.7,0.7,16.1,0.9c4.6,0.2,8.3,1.1,10.5,5.9
		c3.7,7.9,10.9,11.9,18.4,15.4c2.9,1.4,5.4,3.4,8.3,4.7c1.8,0.8,4,1,6,1.4c0.2-0.4,0.5-0.8,0.7-1.2c-1.5-1.7-2.9-3.3-4.4-5
		c-6.8-8-13.7-15.9-20.2-24.1c-3.1-3.9-6.6-5.9-11.5-6.1c-10-0.4-20.1-1-30.1-1.3C759.4,324.8,757.1,325.6,754,326.1z"/>
	<path class="st0" d="M914.3,179.1c-3.1,2.3-7.7,3.9-8.8,6.9c-1.3,3.4,0.4,7.9,4.5,10.6c5.8,3.9,11.1,8.5,16.8,12.5
		c3.5,2.5,7.2,4.7,11,6.8c2.8,1.5,5.4,0.9,6.3-2.5c1.6-5.8,0.2-11.3-4.2-15.1c-7.1-6.2-14.9-11.8-22.4-17.6
		c-0.6-0.5-1.6-0.5-2.4-0.7C914.9,179.8,914.6,179.5,914.3,179.1z"/>
	<path class="st0" d="M762.5,107.5c-1.5,1-5,2.4-4.9,3.6c0.2,3.1,1.7,6.2,3.3,8.9c0.7,1.2,2.9,1.6,4.5,2c8.4,2.4,17,4.6,25.4,7.2
		c2.6,0.8,4.7,3.5,7.3,4.2c4.4,1.1,9,1.6,13.5,1.7c1.1,0,2.8-2,3.1-3.3c0.2-0.8-1.7-2.4-2.9-3.1c-11.3-6.1-22.5-12.3-34-17.9
		C773.4,108.9,768.3,108.7,762.5,107.5z"/>
	<path class="st0" d="M1157.6,775.1c-2.8,4.4-5.5,8.8-8.3,13.2c-7.4,11.5-14.6,23.1-22.1,34.5c-4.2,6.3-8.9,12.1-13.4,18.2
		c-4.7,6.4-4.4,8.8,2,13.1c1,0.7,4.5-0.1,4.7-0.6c2.6-12.1,13-19.4,18-29.9c3.1-6.5,5.6-13.3,8.6-19.8c3.4-7.6,7.1-15.1,10.6-22.6
		c0.7-1.6,1.2-3.4,1.7-5.1C1158.7,775.8,1158.1,775.4,1157.6,775.1z"/>
	<path class="st0" d="M154.3,968.8c0-2.6-4.3-8.9-7.1-12.6c-5.9-7.9-12.5-15.3-18.5-23.1c-2.3-3-3.6-6.9-6-9.8
		c-1.3-1.5-5.1-3-6.4-2.4s-1.8,5-1,6.6c3.2,6,7,11.7,10.8,17.4c3.3,4.8,6.9,9.5,10.4,14.2c3.2,4.3,6.2,8.8,9.7,12.8
		c0.9,1.1,3.5,1.7,4.8,1.2C152.3,972.6,154.3,971.4,154.3,968.8z"/>
	<path class="st0" d="M102,646.7c0.1,3.1,1.1,6.3,2.1,9.2c0.3,0.9,1.9,1.9,3,2c0.7,0.1,1.9-1.4,2.2-2.3c0.8-3.4,0.8-7,1.8-10.4
		c2.6-8.4-1.5-16.3-1.3-24.5c0.1-6.1-0.5-12.3-1.2-18.5c-0.1-1.3-1.9-3.1-3.1-3.3c-1.2-0.2-3.4,1.1-3.8,2.3c-0.9,2.4-1,5.2-1.4,7.8
		C100.9,609.2,101.8,634.2,102,646.7z"/>
	<path class="st0" d="M995.1,230.1c-1.2-1.2-2.6-3.2-4.4-4.4c-6.7-4.5-13.6-8.7-20.4-13.1c-1.3-0.8-2.5-2.4-3.7-2.3
		c-1.2,0-3.6,1.8-3.4,2.4c1.3,6.6,3.3,12.9,10.4,15.8c0.7,0.3,1.5,0.9,1.9,1.5c3.3,5.3,8.6,5.7,14.1,6.2
		C993.6,236.6,994.1,233.8,995.1,230.1z"/>
	<path class="st0" d="M399.2,1118c-2.8-2.2-5.9-4.8-9.3-7.1c-2.1-1.4-4.7-2.2-7-3.4c-2.7-1.4-5.3-3.1-8-4.5
		c-1.1-0.6-2.3-0.7-3.5-1.1c0,1.4-0.6,3.2,0,4c2.1,2.6,4.5,5.1,7.1,7c6.6,4.9,13.2,10,20.3,14c5.7,3.2,12.3,4.9,18.5,7.3
		c0.4-0.8,0.7-1.5,1.1-2.3c-4.9-3-9.8-5.8-14.6-8.9C402.2,1121.8,401,1119.9,399.2,1118z"/>
</g>
</svg>
